<svg width="1762" height="51" viewBox="0 0 1762 51" fill="none" xmlns="http://www.w3.org/2000/svg">
<g clip-path="url(#clip0_25_2)">
<path fill-rule="evenodd" clip-rule="evenodd" d="M78.1499 5L81.4973 42.9176L95.9999 47L110.503 42.9176L113.85 5H78.1499ZM106.662 17.2892L95.9873 22.0625L95.96 22.073H106.286L105.103 36.2732L96.002 39.0515L95.9873 39.0452V39.0515L86.8355 36.2207L86.2475 29.0702H90.7877L91.0817 32.7746L95.9453 34.0577L95.9873 34.0451V34.0514L101.021 32.5688L101.365 26.6006L95.9873 26.5838L85.9493 26.5502L85.607 22.073L95.9873 17.5517L96.5921 17.2892H85.2143L84.6704 12.7112H107.105L106.662 17.2892Z" fill="#EFEFEF"/>
</g>
<path d="M2.48315 5L5.85365 42.8L20.9789 47L36.1435 42.7947L39.5193 5H2.48578H2.48315ZM33.2534 40.3903L21.0629 43.7686V43.787L21.0314 43.7765L20.9999 43.787V43.7686L8.8094 40.3903L5.92715 8.09225H36.1357L33.2534 40.3903ZM26.6909 26.7455L26.1554 32.7568L20.9789 34.1532L15.8155 32.762L15.4848 29.0608H10.8307L11.479 36.3425L20.9973 38.9754L30.4867 36.3425L31.7598 22.1098H14.8627L14.44 17.3611H32.1798L32.5945 12.7254H9.37115L10.6233 26.7455H26.6909Z" fill="#EFEFEF"/>
<g clip-path="url(#clip1_25_2)">
<path d="M150 5H192V47H150V5ZM188.56 36.983C188.253 35.0667 187.006 33.4567 183.304 31.9552C182.016 31.3515 180.585 30.9315 180.159 29.9602C180 29.3827 179.976 29.0677 180.079 28.7265C180.341 27.596 181.68 27.2565 182.73 27.5715C183.413 27.7815 184.043 28.3065 184.438 29.1465C186.248 27.9635 186.248 27.9635 187.51 27.1778C187.037 26.4428 186.802 26.126 186.484 25.8127C185.381 24.579 183.913 23.949 181.524 24.0033L180.291 24.159C179.108 24.4477 177.981 25.0778 177.298 25.9178C175.303 28.177 175.879 32.1145 178.294 33.742C180.683 35.527 184.176 35.919 184.622 37.6007C185.042 39.6482 183.1 40.3045 181.182 40.0682C179.762 39.7532 178.976 39.0427 178.11 37.7302L174.908 39.5695C175.275 40.4095 175.695 40.7753 176.325 41.5103C179.37 44.5833 186.983 44.4257 188.349 39.7532C188.4 39.5957 188.77 38.5195 188.479 36.8657L188.56 36.983ZM172.839 24.3043H168.905C168.905 27.6958 168.889 31.0663 168.889 34.463C168.889 36.619 169 38.5983 168.648 39.2073C168.071 40.413 166.583 40.259 165.908 40.0473C165.215 39.7043 164.863 39.2318 164.455 38.551C164.345 38.3673 164.263 38.208 164.233 38.208L161.039 40.1767C161.573 41.2792 162.351 42.2278 163.356 42.8315C164.852 43.724 166.863 44.0128 168.968 43.5403C170.338 43.1448 171.52 42.331 172.137 41.071C173.03 39.4435 172.841 37.4485 172.832 35.2155C172.853 31.621 172.832 28.0247 172.832 24.4022L172.839 24.3043Z" fill="#EFEFEF"/>
</g>
<g clip-path="url(#clip2_25_2)">
<path d="M225 26V47H267V5H225V26ZM258.844 24.3252C259.851 24.5623 260.766 25.0899 261.476 25.8425C261.859 26.252 262.432 27.0041 262.481 27.1891C262.494 27.2443 260.67 28.4675 259.562 29.1513C259.521 29.1789 259.357 29.0082 259.179 28.7405C258.639 27.9543 258.071 27.6131 257.203 27.5514C255.932 27.4687 255.111 28.1328 255.118 29.2471C255.111 29.5198 255.172 29.7899 255.295 30.0333C255.576 30.6147 256.102 30.9626 257.729 31.6674C260.737 32.9589 262.022 33.8133 262.821 35.0234C263.716 36.3766 263.914 38.537 263.313 40.1501C262.644 41.8931 260.989 43.0822 258.664 43.472C257.946 43.6019 256.238 43.5809 255.464 43.4379C253.777 43.1373 252.177 42.3026 251.192 41.2092C250.802 40.7853 250.05 39.671 250.099 39.5962C250.12 39.5686 250.291 39.4597 250.482 39.3494L252.041 38.4464L253.252 37.7429L253.505 38.1183C253.861 38.6577 254.632 39.3967 255.098 39.6421C256.438 40.3535 258.277 40.2511 259.187 39.4374C259.556 39.1303 259.762 38.6578 259.734 38.18C259.734 37.6944 259.672 37.4765 259.419 37.1129C259.091 36.6483 258.428 36.2519 256.534 35.4316C254.367 34.4945 253.43 33.9209 252.584 32.9983C252.051 32.3909 251.656 31.6747 251.428 30.8996C251.271 30.305 251.23 28.814 251.354 28.2194C251.799 26.1208 253.384 24.6652 255.66 24.2347C256.399 24.0916 258.121 24.1454 258.845 24.3239L258.844 24.3252ZM248.987 26.0827L249 27.7981H243.531V43.3368H239.662V27.7981H234.201V26.1168C234.201 25.1797 234.222 24.4014 234.248 24.3804C234.269 24.3528 237.591 24.3397 241.624 24.3462L248.966 24.3672L248.987 26.0827Z" fill="#EFEFEF"/>
</g>
<path d="M324.902 26.0069C324.902 27.0444 324.49 28.0394 323.757 28.7732C323.024 29.507 322.029 29.9195 320.991 29.9199C319.953 29.9199 318.958 29.5077 318.224 28.7738C317.491 28.04 317.078 27.0447 317.078 26.0069C317.078 24.9694 317.49 23.9744 318.224 23.2406C318.957 22.5069 319.952 22.0944 320.99 22.0939C322.027 22.0939 323.023 22.5062 323.756 23.24C324.49 23.9739 324.902 24.9691 324.902 26.0069ZM329.537 7.29943C327.181 7.29943 324.099 8.97943 320.982 11.8879C317.867 8.99518 314.784 7.33443 312.43 7.33443C311.713 7.33443 311.06 7.49718 310.495 7.82093C308.089 9.20868 307.55 13.5329 308.792 18.9597C303.465 20.6047 300 23.2349 300 26.0069C300 28.7894 303.483 31.4267 308.825 33.0594C307.593 38.5072 308.143 42.8384 310.554 44.2244C311.114 44.5517 311.762 44.7057 312.483 44.7057C314.836 44.7057 317.92 43.0257 321.037 40.1137C324.152 43.0082 327.235 44.6689 329.589 44.6689C330.307 44.6689 330.959 44.5114 331.524 44.1877C333.929 42.8017 334.47 38.4774 333.227 33.0489C338.535 31.4179 342 28.7824 342 26.0069C342 23.2244 338.518 20.5872 333.175 18.9509C334.407 13.5084 333.857 9.17368 331.446 7.78593C330.863 7.45808 330.205 7.29024 329.537 7.29943ZM329.528 9.20693V9.21743C329.921 9.21743 330.238 9.29443 330.504 9.43968C331.67 10.1082 332.175 12.6509 331.782 15.9217C331.687 16.7267 331.533 17.5754 331.344 18.4417C329.555 18.0087 327.738 17.6965 325.907 17.5072C324.816 16.0022 323.627 14.5716 322.346 13.2249C325.132 10.6349 327.748 9.21393 329.53 9.20868L329.528 9.20693ZM312.43 9.24193C314.201 9.24193 316.83 10.6559 319.623 13.2319C318.422 14.4919 317.225 15.9217 316.088 17.5054C314.252 17.6925 312.432 18.0071 310.64 18.4469C310.452 17.6262 310.304 16.7969 310.196 15.9619C309.793 12.6929 310.29 10.1519 311.445 9.47468C311.777 9.31718 312.145 9.25068 312.43 9.24193ZM320.974 14.5794C321.77 15.3984 322.566 16.3154 323.354 17.3164C322.584 17.2814 321.796 17.2569 321 17.2569C320.195 17.2569 319.399 17.2744 318.62 17.3164C319.39 16.3154 320.186 15.4002 320.974 14.5794ZM321 19.1749C322.295 19.1749 323.585 19.2344 324.853 19.3377C325.564 20.3562 326.257 21.4429 326.924 22.5927C327.575 23.7127 328.166 24.8502 328.705 25.9982C328.166 27.1444 327.575 28.2907 326.933 29.4107C326.268 30.5657 325.58 31.6647 324.868 32.6832C322.299 32.9079 319.716 32.9109 317.147 32.6919C316.412 31.636 315.721 30.55 315.076 29.4369C314.425 28.3169 313.834 27.1794 313.295 26.0314C313.836 24.8663 314.427 23.7254 315.067 22.6119C315.732 21.4569 316.42 20.3614 317.132 19.3429C318.419 19.2293 319.709 19.1721 321 19.1714V19.1749ZM314.639 19.6194C314.219 20.2792 313.799 20.9547 313.407 21.6494C313.013 22.3319 312.646 23.0179 312.296 23.7039C311.832 22.5559 311.438 21.4114 311.112 20.2967C312.232 20.0342 313.414 19.7997 314.639 19.6194ZM327.344 19.6194C328.56 19.7997 329.733 20.0219 330.854 20.2967C330.539 21.4027 330.146 22.5402 329.699 23.6794C328.985 22.2864 328.2 20.9313 327.346 19.6194H327.344ZM332.704 20.8007C333.551 21.0632 334.356 21.3554 335.11 21.6722C338.141 22.9672 340.101 24.6612 340.101 26.0052C340.093 27.3492 338.133 29.0502 335.102 30.3364C334.367 30.6514 333.561 30.9349 332.73 31.1992C332.205 29.4202 331.562 27.678 330.805 25.9842C331.593 24.2044 332.223 22.4667 332.704 20.7972V20.8007ZM309.263 20.8077C309.749 22.4877 310.392 24.2324 311.188 26.0227C310.437 27.7064 309.802 29.4394 309.287 31.2097C308.44 30.9472 307.635 30.6532 306.89 30.3347C303.859 29.0449 301.899 27.3492 301.899 26.0052C301.899 24.6612 303.859 22.9567 306.89 21.6722C307.625 21.3572 308.43 21.0737 309.263 20.8077ZM329.699 28.2977C330.163 29.4474 330.557 30.5937 330.882 31.7067C329.762 31.9814 328.579 32.2142 327.354 32.3892C328.207 31.0671 328.989 29.7014 329.699 28.2977ZM312.296 28.3327C312.646 29.0187 313.013 29.7029 313.415 30.3889C313.818 31.0714 314.229 31.7399 314.649 32.3892C313.469 32.2185 312.298 31.9931 311.139 31.7137C311.454 30.6112 311.849 29.4702 312.294 28.3309L312.296 28.3327ZM331.36 33.5599C331.556 34.4227 331.71 35.2539 331.804 36.0502C332.207 39.3192 331.71 41.8602 330.555 42.5392C330.298 42.6967 329.963 42.7632 329.57 42.7632C327.799 42.7632 325.17 41.3509 322.377 38.7732C323.578 37.5132 324.775 36.0852 325.912 34.5032C327.85 34.2967 329.682 33.9799 331.36 33.5599ZM310.658 33.5774C312.338 33.9869 314.168 34.3037 316.095 34.5084C317.25 36.0922 318.449 37.5307 319.656 38.7889C316.865 41.3842 314.245 42.8052 312.464 42.8052C312.127 42.8079 311.795 42.7286 311.496 42.5742C310.33 41.9092 309.825 39.3647 310.218 36.0939C310.313 35.2889 310.469 34.4419 310.658 33.5774ZM318.637 34.6974C319.407 34.7324 320.195 34.7569 320.991 34.7569C321.796 34.7569 322.592 34.7394 323.371 34.6974C322.601 35.6984 321.805 36.6137 321.018 37.4362C320.221 36.6137 319.425 35.6984 318.637 34.6974Z" fill="#EFEFEF"/>
<path d="M403.129 32.505C401.869 33.583 399.355 34.3163 396.458 34.3163C392.902 34.3163 389.922 33.2103 389.131 31.721C388.849 32.575 388.785 33.5515 388.785 34.1745C388.785 34.1745 388.599 37.237 390.729 39.3685C390.729 38.2625 391.627 37.3647 392.733 37.3647C394.628 37.3647 394.626 39.0185 394.624 40.3608V40.4815C394.624 42.5185 395.869 44.2632 397.64 45C397.367 44.4389 397.226 43.8231 397.227 43.1993C397.227 41.2568 398.368 40.534 399.694 39.694C400.748 39.0238 401.92 38.2818 402.727 36.789C403.162 35.9863 403.389 35.0875 403.388 34.1745C403.389 33.608 403.301 33.0448 403.129 32.505ZM402.214 4.05C402.557 4.477 402.732 5.051 403.082 6.20075L410.726 31.308C407.855 29.8181 404.773 28.7748 401.588 28.214L396.612 11.4C396.573 11.2659 396.49 11.1483 396.378 11.0648C396.266 10.9813 396.13 10.9363 395.99 10.9367C395.85 10.9371 395.714 10.9828 395.602 11.067C395.49 11.1511 395.409 11.2692 395.37 11.4035L390.452 28.2087C387.253 28.7671 384.157 29.8123 381.274 31.308L388.954 6.19725C389.304 5.04925 389.479 4.47525 389.824 4.05C390.127 3.67451 390.521 3.3829 390.969 3.203C391.476 3 392.075 3 393.275 3H398.761C399.962 3 400.564 3 401.071 3.20475C401.518 3.38474 401.912 3.67568 402.214 4.05Z" fill="#EFEFEF"/>
<g clip-path="url(#clip3_25_2)">
<path d="M490.516 7.78037L479.138 9.85437L481.115 3L465.325 6.09405L465.079 10.2481L451.244 7.77537C450.292 7.71991 449.736 8.40414 450.13 9.35414L470.15 44.4621C470.581 45.1655 471.573 45.193 472.008 44.4621L491.639 9.35078C492.082 8.55704 491.403 7.62664 490.516 7.78037ZM471.075 43.4996L451.468 9.11592L465.002 11.5351L464.364 22.3111L469.912 21.0308L468.365 28.6059L472.58 27.3255L470.488 37.448C470.384 38.1099 471.246 38.462 471.673 37.5146L483.996 12.9223L477.914 14.096L478.742 11.228L490.301 9.12109L471.075 43.4996Z" fill="#EFEFEF"/>
</g>
<g clip-path="url(#clip4_25_2)">
<path d="M773.76 31.0832C773.736 31.1324 773.711 31.1718 773.76 31.0832ZM794.197 23.9465C792.547 23.9459 790.919 24.3248 789.439 25.0539C788.955 24.0777 788.455 23.2246 788.372 22.5847C788.274 21.8383 788.167 21.3953 788.282 20.5093C788.397 19.6234 788.914 18.3683 788.906 18.2781C788.897 18.1879 788.791 17.7367 787.733 17.7285C786.674 17.7203 785.764 17.9336 785.658 18.2125C785.471 18.7222 785.326 19.2461 785.223 19.7793C785.035 20.739 783.108 24.1679 782.017 25.9562C781.656 25.259 781.352 24.6437 781.287 24.1515C781.188 23.4051 781.082 22.9621 781.196 22.0761C781.311 21.1902 781.828 19.9351 781.82 19.8449C781.812 19.7547 781.705 19.3035 780.648 19.2953C779.59 19.2871 778.679 19.5004 778.572 19.7793C778.466 20.0582 778.351 20.7144 778.137 21.3461C777.924 21.9777 775.357 27.6871 774.686 29.1718C774.341 29.9265 774.046 30.5336 773.832 30.9437C773.8 31.0093 773.775 31.0504 773.759 31.0832C773.783 31.0422 773.8 31.0011 773.8 31.0176C773.619 31.3703 773.513 31.5672 773.513 31.5672V31.5754C773.373 31.8379 773.217 32.0758 773.143 32.0758C773.094 32.0758 772.988 31.3867 773.168 30.4433C773.554 28.4582 774.464 25.3738 774.456 25.2672C774.448 25.2097 774.628 24.6765 773.857 24.3894C773.111 24.1187 772.84 24.5699 772.774 24.5699C772.709 24.5699 772.659 24.734 772.659 24.734C772.659 24.734 773.488 21.2558 771.069 21.2558C769.559 21.2558 767.459 22.9129 766.427 24.414C765.779 24.7668 764.377 25.5297 762.9 26.3418C762.334 26.6535 761.752 26.9734 761.202 27.2769C761.161 27.2359 761.128 27.1949 761.087 27.1539C758.151 24.0203 752.731 21.8054 752.96 17.5972C753.042 16.0633 753.576 12.0355 763.384 7.14646C771.423 3.14333 777.85 4.24255 778.957 6.68708C780.548 10.1734 775.521 16.6621 767.172 17.5972C763.99 17.95 762.318 16.7195 761.899 16.2601C761.465 15.7761 761.399 15.7515 761.235 15.8418C760.964 15.9894 761.136 16.416 761.235 16.6703C761.481 17.3183 762.506 18.4668 764.253 19.041C765.787 19.5414 769.518 19.8203 774.029 18.073C779.096 16.1207 783.041 10.682 781.885 6.12927C780.707 1.50271 773.035 -0.0148696 765.781 2.56091C761.459 4.0949 756.785 6.50662 753.422 9.64841C749.428 13.389 748.789 16.6457 749.052 18.0074C749.986 22.839 756.645 25.989 759.31 28.3187C759.179 28.3926 759.056 28.4582 758.941 28.5238C757.605 29.1883 752.528 31.8461 751.257 34.6515C749.822 37.8344 751.495 40.1148 752.594 40.4265C756.022 41.3781 759.532 39.6636 761.418 36.85C763.304 34.0363 763.075 30.3613 762.205 28.6879C762.197 28.6633 762.181 28.6469 762.173 28.6222C762.517 28.4172 762.87 28.2121 763.223 28.007C763.903 27.6051 764.567 27.2359 765.149 26.916C764.821 27.8019 764.583 28.8683 764.46 30.4105C764.313 32.2152 765.059 34.5531 766.027 35.4719C766.454 35.8738 766.97 35.882 767.29 35.882C768.422 35.882 768.93 34.9469 769.495 33.8312C770.193 32.4695 770.808 30.8863 770.808 30.8863C770.808 30.8863 770.037 35.1683 772.145 35.1683C772.915 35.1683 773.686 34.1758 774.032 33.6672V33.6754C774.032 33.6754 774.048 33.6426 774.089 33.5769C774.171 33.4539 774.212 33.3801 774.212 33.3801V33.3554C774.524 32.8222 775.205 31.6 776.229 29.582C777.558 26.9734 778.829 23.7168 778.829 23.7168C778.952 24.4327 779.122 25.1397 779.338 25.8332C779.567 26.6125 780.051 27.4656 780.437 28.2941C780.125 28.7207 779.936 28.9668 779.936 28.9668C779.937 28.9731 779.94 28.9789 779.945 28.9832C779.699 29.3113 779.42 29.664 779.132 30.0086C778.083 31.2554 776.836 32.6828 776.672 33.0929C776.475 33.5769 776.524 33.9379 776.901 34.2168C777.18 34.4301 777.672 34.4629 778.188 34.4218C779.132 34.3562 779.796 34.1265 780.116 33.9789C780.706 33.7674 781.263 33.4747 781.772 33.1093C782.798 32.3547 783.421 31.2718 783.364 29.8445C783.331 29.057 783.077 28.2695 782.765 27.5312C782.855 27.4 782.954 27.2605 783.044 27.1211C784.667 24.7504 785.922 22.1483 785.922 22.1483C786.045 22.8642 786.215 23.5712 786.431 24.2647C786.628 24.9292 787.012 25.6593 787.365 26.3729C785.84 27.6116 784.897 29.0472 784.569 29.9905C783.962 31.7378 784.437 32.5253 785.332 32.7058C785.734 32.7878 786.308 32.5991 786.734 32.4186C787.368 32.2076 787.965 31.9005 788.505 31.5081C789.531 30.7534 790.523 29.6952 790.457 28.2597C790.432 27.6116 790.252 26.9636 790.014 26.3401C791.302 25.7987 792.974 25.5034 795.107 25.7495C799.675 26.2827 800.569 29.1374 800.397 30.3269C800.224 31.5163 799.265 32.1808 798.945 32.3776C798.625 32.5745 798.526 32.6483 798.551 32.796C798.592 33.0093 798.74 33.0011 799.01 32.9519C799.388 32.8862 801.405 31.9839 801.495 29.7772C801.626 26.9882 798.945 23.9202 794.194 23.9448L794.197 23.9465ZM758.991 35.8164C757.482 37.4652 755.366 38.0886 754.456 37.5636C753.48 36.996 753.865 34.5695 755.727 32.8124C756.859 31.746 758.318 30.7616 759.286 30.1546C759.507 30.0233 759.827 29.8265 760.221 29.5886C760.287 29.5476 760.319 29.5311 760.319 29.5311C760.393 29.4819 760.475 29.4409 760.557 29.3917C761.237 31.8854 760.582 34.0839 758.991 35.8147V35.8164ZM770.012 28.3187C769.487 29.6066 768.381 32.8879 767.708 32.7156C767.134 32.5679 766.781 30.066 767.593 27.6051C768.003 26.3664 768.873 24.8898 769.39 24.3156C770.217 23.3886 771.128 23.0933 771.341 23.4625C771.628 23.9465 770.34 27.5148 770.012 28.3187ZM779.118 32.6664C778.896 32.7812 778.691 32.8551 778.593 32.7976C778.519 32.7566 778.683 32.6008 778.683 32.6008C778.683 32.6008 779.823 31.3785 780.274 30.8207C780.537 30.4926 780.84 30.107 781.168 29.6804C781.168 29.7215 781.176 29.7625 781.176 29.8117C781.165 31.2801 779.755 32.2726 779.115 32.6664H779.118ZM786.138 31.0668C785.974 30.9519 785.999 30.5664 786.548 29.3687C786.761 28.9011 787.253 28.1136 788.107 27.359C788.203 27.6446 788.256 27.9434 788.263 28.2449C788.254 30.0906 786.934 30.7797 786.139 31.0668H786.138Z" fill="#EFEFEF"/>
</g>
<g clip-path="url(#clip5_25_2)">
<path d="M855.004 3C854.011 3 853.059 3.39428 852.357 4.09612C851.656 4.79795 851.261 5.74984 851.261 6.74237C851.261 7.73491 851.656 8.6868 852.357 9.38863C853.059 10.0905 854.011 10.4847 855.004 10.4847C855.996 10.4847 856.948 10.0905 857.65 9.38863C858.352 8.6868 858.746 7.73491 858.746 6.74237C858.746 5.74984 858.352 4.79795 857.65 4.09612C856.948 3.39428 855.996 3 855.004 3ZM869.949 11.6293C868.956 11.6293 868.004 12.0235 867.302 12.7254C866.601 13.4272 866.206 14.3791 866.206 15.3716C866.206 16.3642 866.601 17.3161 867.302 18.0179C868.004 18.7197 868.956 19.114 869.949 19.114C870.941 19.114 871.893 18.7197 872.595 18.0179C873.297 17.3161 873.691 16.3642 873.691 15.3716C873.691 14.3791 873.297 13.4272 872.595 12.7254C871.893 12.0235 870.941 11.6293 869.949 11.6293ZM869.949 28.8878C868.956 28.8878 868.004 29.282 867.302 29.9839C866.601 30.6857 866.206 31.6376 866.206 32.6301C866.206 33.6227 866.601 34.5746 867.302 35.2764C868.004 35.9782 868.956 36.3725 869.949 36.3725C870.941 36.3725 871.893 35.9782 872.595 35.2764C873.297 34.5746 873.691 33.6227 873.691 32.6301C873.691 31.6376 873.297 30.6857 872.595 29.9839C871.893 29.282 870.941 28.8878 869.949 28.8878ZM855.004 37.517C854.011 37.517 853.06 37.9112 852.358 38.6129C851.656 39.3145 851.262 40.2662 851.262 41.2585C851.262 42.2508 851.656 43.2025 852.358 43.9041C853.06 44.6058 854.011 45 855.004 45C855.996 45 856.948 44.6058 857.649 43.9041C858.351 43.2025 858.745 42.2508 858.745 41.2585C858.745 40.2662 858.351 39.3145 857.649 38.6129C856.948 37.9112 855.996 37.517 855.004 37.517ZM840.055 28.8895C839.564 28.8895 839.077 28.9863 838.623 29.1743C838.169 29.3623 837.757 29.6379 837.409 29.9854C837.062 30.3328 836.786 30.7453 836.598 31.1992C836.41 31.6531 836.314 32.1397 836.314 32.631C836.314 33.1223 836.41 33.6089 836.598 34.0628C836.786 34.5168 837.062 34.9292 837.409 35.2766C837.757 35.6241 838.169 35.8997 838.623 36.0877C839.077 36.2757 839.564 36.3725 840.055 36.3725C841.048 36.3725 842 35.9782 842.701 35.2764C843.403 34.5746 843.797 33.6227 843.797 32.6301C843.797 31.6376 843.403 30.6857 842.701 29.9839C842 29.282 841.048 28.8895 840.055 28.8895ZM840.055 11.6293C839.063 11.6293 838.111 12.0235 837.409 12.7254C836.707 13.4272 836.313 14.3791 836.313 15.3716C836.313 16.3642 836.707 17.3161 837.409 18.0179C838.111 18.7197 839.063 19.114 840.055 19.114C841.048 19.114 842 18.7197 842.701 18.0179C843.403 17.3161 843.797 16.3642 843.797 15.3716C843.797 14.3791 843.403 13.4272 842.701 12.7254C842 12.0235 841.048 11.6293 840.055 11.6293ZM855.004 5.71775L839.168 14.8597V33.1438L855.004 42.2857L870.836 33.1438V14.8597L855.004 5.71775ZM855.004 8.5195L868.409 31.742H841.595L855.004 8.5195ZM852.576 9.16875L840.948 29.3147V15.8852L852.576 9.16875ZM857.431 9.16875L869.061 15.8852V29.3147L857.431 9.16875ZM843.371 33.52H866.634L855.004 40.233L843.371 33.52Z" fill="#EFEFEF"/>
</g>
<g clip-path="url(#clip6_25_2)">
<path d="M675.017 1.58142C674.931 1.23147 675.255 0.918984 675.602 1.01888L685.693 3.92417C685.784 3.92396 685.872 3.94955 685.949 3.99796L705.851 9.72779C705.934 9.72942 706.015 9.75293 706.086 9.79525L716.178 12.7009C716.524 12.8008 716.633 13.2386 716.373 13.4887L685.919 42.7831C685.659 43.0331 685.226 42.908 685.139 42.5577L680.087 22.1071C680.081 22.0861 680.075 22.0646 680.072 22.0429L675.017 1.58142ZM683.662 32.6695L685.854 41.5451L692.456 35.1941L683.662 32.6695ZM690.462 25.6505L684.07 31.8118L692.585 34.2566L690.462 25.6505ZM691.411 25.5847L693.528 34.1635L699.902 28.0315L691.411 25.5847ZM681.184 22.6375L683.309 31.244L689.694 25.0899L681.184 22.6375ZM698 18.3762L691.506 24.6367L700.161 27.1307L698 18.3762ZM698.91 18.1536L701.071 26.9077L707.583 20.6433L698.91 18.1536ZM687.951 15.4713L681.443 21.7372L690.114 24.2356L687.951 15.4713ZM688.858 15.235L690.981 23.8409L697.373 17.6794L688.858 15.235H688.858ZM678.633 12.3123L680.794 21.0611L687.298 14.7997L678.633 12.3123ZM705.583 11.0977L699.191 17.2591L707.706 19.7038L705.583 11.0977ZM706.497 10.8886L708.65 19.6171L715.138 13.3764L706.497 10.8886ZM695.492 8.2119L689.129 14.3379L697.604 16.7708L695.492 8.2119ZM696.401 7.98179L698.527 16.5981L704.921 10.4348L696.401 7.98179ZM685.436 5.29412L679.044 11.4556L687.56 13.9001L685.436 5.29412ZM686.351 5.08834L688.469 13.6727L694.845 7.53406L686.351 5.08834ZM676.121 2.14331L678.282 10.8895L684.772 4.63379L676.121 2.14331Z" fill="#EFEFEF"/>
</g>
<g clip-path="url(#clip7_25_2)">
<path d="M556.171 45.3817C556.014 45.4643 556.027 45.4906 556.177 45.4145C556.223 45.3956 556.266 45.3685 556.302 45.3344C556.302 45.3068 556.302 45.3068 556.171 45.3817ZM556.486 45.211C556.411 45.2727 556.411 45.2727 556.5 45.232C556.533 45.2166 556.563 45.1957 556.589 45.1703C556.589 45.1349 556.568 45.1428 556.486 45.211ZM556.69 45.0877C556.616 45.1493 556.616 45.1493 556.705 45.1087C556.738 45.0929 556.768 45.0716 556.794 45.0457C556.794 45.0128 556.773 45.0194 556.69 45.0877ZM556.898 44.9656C556.823 45.0273 556.823 45.0273 556.91 44.9853C556.958 44.959 556.999 44.9315 556.999 44.9236C556.999 44.8908 556.978 44.8973 556.898 44.9656ZM557.177 44.7805C557.034 44.8763 556.984 44.938 557.116 44.8698C557.203 44.816 557.353 44.6978 557.327 44.6978C557.27 44.7188 557.223 44.7543 557.176 44.7805H557.177ZM544.626 6.01453C544.53 6.02109 544.243 6.04734 543.991 6.06834C538.021 6.60909 532.437 9.82209 528.897 14.7715C526.941 17.4861 525.669 20.633 525.19 23.9446C525.021 25.0996 525 25.4408 525 27.0067C525 28.5712 525.021 28.9072 525.19 30.0622C526.333 37.9516 531.946 44.5745 539.553 47.0288C540.922 47.4659 542.356 47.7678 543.991 47.9528C544.626 48.0211 547.373 48.0211 548.008 47.9528C550.833 47.6378 553.217 46.9409 555.577 45.7373C555.94 45.5536 556.008 45.505 555.959 45.4643C554.808 43.9426 553.667 42.4135 552.535 40.8772L549.179 36.3451L544.975 30.1173C543.577 28.0321 542.164 25.9565 540.737 23.8908C540.722 23.8908 540.704 26.6588 540.696 30.0346C540.682 35.9474 540.682 36.1876 540.607 36.3241C540.535 36.489 540.407 36.6227 540.245 36.7008C540.115 36.7625 539.998 36.7756 539.377 36.7756H538.667L538.482 36.6601C538.366 36.5857 538.272 36.482 538.209 36.3595L538.12 36.1745L538.126 27.9438L538.141 19.7131L538.271 19.549C538.354 19.4482 538.456 19.3647 538.571 19.3036C538.743 19.2209 538.811 19.2078 539.522 19.2078C540.355 19.2078 540.493 19.2406 540.712 19.4808C542.415 22.0137 544.103 24.5565 545.777 27.109C548.506 31.246 552.23 36.8911 554.061 39.6605L557.391 44.6992L557.555 44.5902C559.156 43.5268 560.606 42.2532 561.867 40.8037C564.512 37.7758 566.229 34.0497 566.811 30.0713C566.98 28.9163 567.001 28.5738 567.001 27.0093C567.001 25.4435 566.98 25.1088 566.811 23.9538C565.668 16.0643 560.056 9.44147 552.448 6.98578C551.027 6.53549 549.563 6.22902 548.08 6.07097C547.683 6.03028 544.968 5.98172 544.627 6.01715L544.626 6.01453ZM553.219 18.7156C553.316 18.7635 553.403 18.8305 553.475 18.9125C553.546 18.9946 553.601 19.09 553.635 19.1933C553.67 19.3036 553.677 21.586 553.67 26.7271L553.656 34.1086L552.358 32.1136L551.052 30.1173V24.7583C551.052 21.2842 551.066 19.3364 551.085 19.2406C551.149 19.0209 551.296 18.8349 551.495 18.7222C551.658 18.6395 551.721 18.6329 552.371 18.6329C552.979 18.6329 553.082 18.6395 553.219 18.7156Z" fill="#EFEFEF"/>
</g>
<g clip-path="url(#clip8_25_2)">
<path d="M621 44.923C620.401 44.923 619.845 44.7673 619.325 44.4978L614.024 41.4563C613.228 41.0328 613.627 40.8788 613.867 40.8018C614.941 40.4553 615.141 40.3783 616.257 39.7605C616.376 39.6835 616.537 39.722 616.656 39.799L620.722 42.1493C620.879 42.2263 621.081 42.2263 621.2 42.1493L637.102 33.2523C637.259 33.1753 637.34 33.0213 637.34 32.8288V15.0733C637.34 14.8808 637.261 14.7268 637.102 14.6498L621.2 5.79301C621.04 5.71601 620.841 5.71601 620.722 5.79301L604.819 14.6498C604.66 14.7268 604.58 14.9193 604.58 15.0733V32.8288C604.58 32.9828 604.66 33.1753 604.819 33.2523L609.163 35.6795C611.515 36.8345 612.988 35.487 612.988 34.1395V16.615C612.988 16.384 613.188 16.153 613.468 16.153H615.5C615.74 16.153 615.978 16.3455 615.978 16.615V34.1378C615.978 37.181 614.264 38.952 611.275 38.952C610.358 38.952 609.641 38.952 607.609 37.9895L603.425 35.6795C602.921 35.4022 602.499 34.9954 602.205 34.501C601.911 34.0067 601.754 33.4426 601.75 32.8673V15.1118C601.75 13.9568 602.387 12.8788 603.425 12.3013L619.327 3.40251C619.845 3.13701 620.418 2.99854 621 2.99854C621.582 2.99854 622.155 3.13701 622.673 3.40251L638.577 12.2995C639.613 12.877 640.25 13.955 640.25 15.11V32.8655C640.25 34.0205 639.613 35.0985 638.577 35.6778L622.673 44.573C622.145 44.8019 621.576 44.9198 621 44.9195V44.923ZM625.902 32.7133C618.928 32.7133 617.493 29.6333 617.493 27.0135C617.493 26.7825 617.693 26.5515 617.971 26.5515H620.043C620.283 26.5515 620.48 26.7055 620.48 26.9365C620.801 28.977 621.718 29.978 625.942 29.978C629.29 29.978 630.725 29.2465 630.725 27.514C630.725 26.513 630.326 25.7815 625.105 25.281C620.76 24.8558 618.051 23.9335 618.051 20.5823C618.051 17.462 620.76 15.6123 625.305 15.6123C630.406 15.6123 632.918 17.308 633.236 21.0058C633.232 21.1309 633.19 21.252 633.115 21.3523C633.037 21.4293 632.917 21.5063 632.797 21.5063H630.725C630.624 21.5038 630.527 21.4687 630.448 21.4062C630.369 21.3437 630.313 21.2572 630.287 21.1598C629.808 19.0423 628.572 18.3475 625.305 18.3475C621.637 18.3475 621.2 19.5795 621.2 20.5035C621.2 21.6218 621.718 21.9683 626.66 22.5843C631.561 23.2003 633.873 24.0858 633.873 27.3968C633.833 30.7883 630.964 32.7133 625.902 32.7133Z" fill="#EFEFEF"/>
</g>
<path d="M1088.41 6.75C1086.87 6.7613 1085.34 6.97908 1083.85 7.3975L1083.75 7.429C1082.81 7.26906 1081.87 7.18072 1080.92 7.16475C1078.97 7.1315 1077.3 7.59 1075.95 8.35475C1074.62 7.90675 1071.86 7.135 1068.96 7.289C1066.93 7.39575 1064.72 7.9925 1063.09 9.669C1061.46 11.3455 1060.59 13.939 1060.77 17.4688C1060.82 18.4435 1061.11 20.0308 1061.58 22.0888C1062.06 24.145 1062.73 26.5512 1063.56 28.7475C1064.39 30.9455 1065.3 32.9195 1066.72 34.26C1067.43 34.932 1068.41 35.4972 1069.57 35.45C1070.38 35.4185 1071.11 35.0737 1071.74 34.5645C1072.05 34.9582 1072.38 35.1298 1072.68 35.289C1073.05 35.4885 1073.42 35.625 1073.8 35.716C1074.85 35.9852 1075.95 36.0394 1077.02 35.8752C1077.49 35.8 1077.98 35.653 1078.47 35.443C1078.49 35.9715 1078.51 36.4895 1078.53 37.0145C1078.6 38.677 1078.64 40.2117 1079.16 41.5575C1079.24 41.778 1079.46 42.9102 1080.36 43.9095C1081.25 44.9105 1083 45.5335 1084.99 45.1205C1086.4 44.8283 1088.19 44.3015 1089.37 42.6635C1090.55 41.043 1091.08 38.7173 1091.18 34.9478C1091.21 34.7448 1091.24 34.5715 1091.27 34.4088L1091.55 34.4333H1091.58C1093.08 34.4998 1094.71 34.2932 1096.07 33.6807C1097.27 33.1382 1098.18 32.5922 1098.85 31.621C1099.01 31.3812 1099.2 31.0907 1099.24 30.5885C1099.29 30.0897 1099 29.3057 1098.51 28.9452C1097.52 28.2207 1096.9 28.4955 1096.24 28.6303C1095.59 28.7703 1094.92 28.8472 1094.25 28.863C1096.17 25.741 1097.54 22.423 1098.32 19.4865C1098.78 17.754 1099.04 16.1563 1099.06 14.7598C1099.08 13.3633 1098.97 12.126 1098.1 11.055C1095.41 7.7125 1091.61 6.7885 1088.68 6.757C1088.59 6.75525 1088.5 6.7535 1088.41 6.75525V6.75ZM1088.33 7.77725C1091.11 7.751 1094.65 8.507 1097.2 11.6622C1097.77 12.371 1097.94 13.407 1097.92 14.6845C1097.9 15.9602 1097.65 17.4862 1097.21 19.1592C1096.35 22.4002 1094.72 26.1767 1092.42 29.5682C1092.5 29.6245 1092.59 29.6709 1092.68 29.7065C1093.16 29.899 1094.25 30.0635 1096.43 29.6295C1096.98 29.5158 1097.38 29.4405 1097.8 29.7485C1097.9 29.831 1097.98 29.9357 1098.03 30.0541C1098.09 30.1725 1098.11 30.3016 1098.1 30.431C1098.08 30.6266 1098.01 30.8126 1097.89 30.97C1097.47 31.5843 1096.64 32.167 1095.57 32.6465C1094.62 33.0735 1093.27 33.2958 1092.07 33.3098C1091.47 33.315 1090.91 33.2695 1090.44 33.1277L1090.41 33.1172C1090.23 34.8165 1089.81 38.1748 1089.54 39.706C1089.32 40.9415 1088.94 41.9232 1088.21 42.6582C1087.48 43.3932 1086.45 43.836 1085.07 44.1248C1083.35 44.4818 1082.1 44.0968 1081.29 43.437C1080.49 42.7808 1080.12 41.9075 1079.89 41.372C1079.74 41.0045 1079.66 40.5268 1079.59 39.888C1079.5 39.1232 1079.45 38.3556 1079.42 37.5868C1079.37 36.2381 1079.35 34.8884 1079.37 33.539C1078.65 34.176 1077.76 34.5995 1076.8 34.7587C1075.66 34.946 1074.64 34.7623 1074.04 34.6153C1073.74 34.542 1073.45 34.4333 1073.18 34.2915C1072.9 34.1463 1072.63 33.9818 1072.45 33.6562C1072.35 33.4704 1072.31 33.2526 1072.36 33.0437C1072.41 32.8315 1072.54 32.6447 1072.72 32.5135C1073.05 32.2545 1073.48 32.111 1074.13 31.978C1075.32 31.7418 1075.74 31.579 1075.99 31.3847C1076.2 31.2185 1076.45 30.8825 1076.88 30.3872C1076.87 30.3657 1076.87 30.3441 1076.87 30.3225C1076.1 30.3016 1075.35 30.1047 1074.67 29.7467C1074.42 30.0005 1073.16 31.3008 1071.61 33.1033C1070.96 33.8575 1070.25 34.2897 1069.49 34.3212C1068.73 34.3527 1068.05 33.9818 1067.46 33.4358C1066.3 32.3403 1065.37 30.4555 1064.56 28.3258C1063.76 26.1943 1063.1 23.8213 1062.64 21.8C1062.17 19.7788 1061.89 18.1495 1061.85 17.3638C1061.68 14.023 1062.48 11.7725 1063.86 10.3533C1065.25 8.934 1067.14 8.39675 1068.99 8.2935C1072.3 8.108 1075.45 9.22975 1076.09 9.47125C1077.32 8.66275 1078.9 8.15875 1080.87 8.19025C1081.81 8.20305 1082.74 8.32045 1083.65 8.54025L1083.68 8.52625C1084.08 8.38975 1084.49 8.27425 1084.91 8.18325C1086.03 7.92898 1087.18 7.79407 1088.33 7.78075L1088.33 7.77725ZM1088.58 8.85175H1088.34C1087.4 8.86453 1086.45 8.96766 1085.52 9.15975C1087.37 9.96127 1088.98 11.1999 1090.24 12.7683C1090.99 13.7067 1091.62 14.7426 1092.11 15.8482C1092.29 16.2717 1092.41 16.6305 1092.48 16.907C1092.52 17.047 1092.54 17.1642 1092.55 17.2867C1092.55 17.3643 1092.55 17.4424 1092.53 17.5177L1092.52 17.5387C1092.57 18.944 1092.21 19.896 1092.17 21.2365C1092.13 22.2095 1092.39 23.3522 1092.45 24.5965C1092.51 25.769 1092.37 27.0552 1091.58 28.3187C1091.65 28.3957 1091.71 28.4727 1091.77 28.5497C1093.84 25.3822 1095.34 21.8752 1096.14 18.888C1096.56 17.278 1096.79 15.8202 1096.81 14.6652C1096.83 13.5102 1096.6 12.672 1096.32 12.3237C1094.1 9.571 1091.1 8.871 1088.58 8.85175ZM1080.66 9.263C1078.71 9.2665 1077.3 9.8405 1076.24 10.698C1075.15 11.5853 1074.41 12.798 1073.93 14.0422C1073.46 15.2857 1073.17 16.59 1073.08 17.915L1073.1 17.9028C1073.69 17.5808 1074.47 17.2605 1075.3 17.075C1076.13 16.8895 1077.02 16.8317 1077.83 17.1362C1078.64 17.4425 1079.31 18.1582 1079.56 19.2467C1080.72 24.4722 1079.19 26.4148 1078.63 27.8795C1078.42 28.4106 1078.23 28.9534 1078.08 29.5053C1078.15 29.4878 1078.23 29.4703 1078.3 29.4633C1078.6 29.4466 1078.91 29.5068 1079.19 29.6383C1079.75 29.8658 1080.14 30.3418 1080.35 30.8878C1080.41 31.0313 1080.45 31.1853 1080.47 31.3428C1080.5 31.4093 1080.51 31.4775 1080.5 31.5475C1080.44 33.5456 1080.45 35.5454 1080.52 37.543C1080.56 38.4075 1080.62 39.167 1080.69 39.7673C1080.76 40.3658 1080.86 40.8207 1080.93 40.9747C1081.14 41.4892 1081.45 42.1613 1082.01 42.618C1082.57 43.073 1083.37 43.3775 1084.83 43.073C1086.1 42.8088 1086.89 42.443 1087.41 41.9128C1087.93 41.386 1088.25 40.6527 1088.45 39.5275C1088.74 37.8422 1089.35 32.958 1089.42 32.0375C1089.39 31.3462 1089.49 30.8125 1089.72 30.4065C1089.96 29.99 1090.32 29.7345 1090.63 29.5963C1090.79 29.5263 1090.94 29.4808 1091.06 29.4475C1090.93 29.2691 1090.8 29.0952 1090.66 28.926C1090.2 28.3956 1089.83 27.8019 1089.55 27.1637C1089.42 26.9007 1089.28 26.6421 1089.13 26.3885C1088.91 26.0035 1088.63 25.5223 1088.34 24.9815C1087.76 23.8983 1087.13 22.5857 1086.8 21.3065C1086.47 20.0307 1086.42 18.7095 1087.26 17.7768C1088.01 16.949 1089.31 16.606 1091.27 16.7985C1091.22 16.6305 1091.18 16.4905 1091.08 16.2665C1090.64 15.251 1090.06 14.2993 1089.36 13.4368C1087.7 11.3753 1085.01 9.33125 1080.85 9.26475L1080.66 9.263ZM1069.68 9.34525C1069.47 9.34525 1069.26 9.35225 1069.05 9.36275C1067.38 9.4555 1065.8 9.92625 1064.67 11.0883C1063.54 12.2485 1062.8 14.1525 1062.96 17.306C1062.99 17.901 1063.26 19.574 1063.72 21.5585C1064.18 23.5465 1064.83 25.8828 1065.61 27.946C1066.39 30.011 1067.34 31.8083 1068.24 32.6588C1068.69 33.084 1069.08 33.2555 1069.44 33.2415C1069.8 33.224 1070.23 33.0245 1070.76 32.4103C1071.72 31.284 1072.72 30.1885 1073.75 29.1255C1073.02 28.5137 1072.46 27.7266 1072.12 26.8383C1071.78 25.9578 1071.68 25.0051 1071.82 24.0733C1071.99 22.8868 1072.01 21.7772 1072 20.9022C1071.97 20.0482 1071.91 19.4812 1071.91 19.126V19.077C1071.91 17.2275 1072.24 15.3928 1072.89 13.6607C1073.35 12.4672 1074.04 11.2545 1075.08 10.2728C1074.06 9.949 1072.26 9.4555 1070.31 9.36275C1070.1 9.35181 1069.89 9.34597 1069.68 9.34525H1069.68ZM1090.18 17.8187C1089.06 17.8327 1088.43 18.1145 1088.1 18.482C1087.63 19.0035 1087.58 19.917 1087.87 21.044C1088.16 22.171 1088.76 23.4327 1089.33 24.4792C1089.61 25.0042 1089.88 25.4767 1090.1 25.8582C1090.32 26.2432 1090.48 26.5162 1090.58 26.7507C1090.67 26.9642 1090.77 27.1533 1090.88 27.33C1091.31 26.4393 1091.39 25.566 1091.34 24.6542C1091.29 23.5272 1091.02 22.374 1091.06 21.2067C1091.1 19.8417 1091.38 18.951 1091.4 17.8957C1091 17.8448 1090.59 17.819 1090.18 17.8187ZM1076.56 18.0025C1076.22 18.0057 1075.88 18.0456 1075.55 18.1215C1074.88 18.278 1074.24 18.5203 1073.64 18.8425C1073.44 18.9475 1073.24 19.07 1073.06 19.2083L1073.03 19.2398C1073.04 19.4743 1073.08 20.043 1073.1 20.8777C1073.12 21.793 1073.1 22.9602 1072.92 24.2202C1072.52 26.9642 1074.57 29.2357 1076.99 29.2392C1077.13 28.6757 1077.36 28.1053 1077.59 27.5033C1078.26 25.748 1079.58 24.4688 1078.47 19.4725C1078.29 18.6553 1077.93 18.3245 1077.43 18.1372C1077.15 18.0417 1076.86 17.9961 1076.56 18.0025ZM1089.65 18.3298H1089.74C1089.85 18.3333 1089.95 18.3455 1090.04 18.3648C1090.12 18.3808 1090.19 18.411 1090.26 18.454C1090.3 18.473 1090.32 18.4984 1090.34 18.5285C1090.37 18.5586 1090.38 18.5928 1090.39 18.629V18.643C1090.39 18.7197 1090.37 18.7954 1090.33 18.86C1090.28 18.9481 1090.22 19.0288 1090.15 19.0998C1089.98 19.2801 1089.75 19.4 1089.51 19.441C1089.27 19.4693 1089.03 19.4103 1088.83 19.2747C1088.75 19.2225 1088.68 19.1588 1088.62 19.0857C1088.56 19.0294 1088.53 18.959 1088.51 18.8828C1088.51 18.8453 1088.51 18.8076 1088.52 18.7719C1088.53 18.7363 1088.55 18.7037 1088.58 18.6763C1088.64 18.6164 1088.7 18.5676 1088.77 18.5327C1089.05 18.4034 1089.35 18.3331 1089.66 18.3262L1089.65 18.3298ZM1076.73 18.5992C1076.81 18.5992 1076.91 18.608 1077 18.6202C1077.25 18.6552 1077.48 18.72 1077.65 18.8162C1077.73 18.86 1077.81 18.916 1077.87 18.986C1077.9 19.0233 1077.93 19.0667 1077.94 19.1137C1077.96 19.1605 1077.96 19.21 1077.96 19.259C1077.94 19.3517 1077.9 19.4375 1077.84 19.5057C1077.77 19.5871 1077.69 19.6579 1077.6 19.7158C1077.38 19.8639 1077.12 19.928 1076.86 19.896C1076.59 19.854 1076.35 19.7254 1076.16 19.5303C1076.09 19.4526 1076.02 19.3642 1075.97 19.2677C1075.91 19.1838 1075.89 19.0838 1075.9 18.9843C1075.92 18.8093 1076.07 18.7217 1076.21 18.6692C1076.38 18.6188 1076.55 18.5975 1076.72 18.6063L1076.73 18.5992ZM1091.71 30.3803H1091.7C1091.46 30.4678 1091.26 30.5027 1091.09 30.5727C1090.92 30.6359 1090.78 30.7585 1090.69 30.9175C1090.59 31.1013 1090.5 31.4285 1090.53 31.985C1090.6 32.035 1090.69 32.0728 1090.77 32.097C1091.05 32.181 1091.53 32.237 1092.06 32.2283C1093.11 32.216 1094.41 31.978 1095.1 31.6665C1095.67 31.411 1096.19 31.0785 1096.66 30.6795C1094.36 31.1415 1093.05 31.019 1092.26 30.6988C1092.06 30.6194 1091.87 30.5115 1091.71 30.3785V30.3803ZM1078.43 30.5307H1078.39C1078.3 30.5377 1078.18 30.5657 1077.93 30.8317C1077.35 31.4582 1077.15 31.8503 1076.68 32.2178C1076.21 32.5853 1075.59 32.7795 1074.36 33.0245C1073.97 33.1015 1073.74 33.1872 1073.59 33.2555C1073.64 33.294 1073.64 33.3045 1073.71 33.3412C1073.89 33.4375 1074.12 33.5215 1074.31 33.5688C1074.84 33.6965 1075.71 33.847 1076.62 33.6965C1077.52 33.546 1078.47 33.1242 1079.27 32.0287C1079.41 31.8397 1079.43 31.5598 1079.31 31.2588C1079.19 30.9613 1078.94 30.7023 1078.76 30.6288C1078.66 30.5795 1078.54 30.5476 1078.43 30.5342V30.5307Z" fill="#EFEFEF"/>
<g clip-path="url(#clip9_25_2)">
<path d="M1224.96 23.8743C1224.4 23.8743 1223.95 24.041 1223.6 24.374C1223.25 24.7071 1223.07 25.1444 1223.07 25.6799C1223.07 25.9572 1223.12 26.2109 1223.2 26.4428C1223.29 26.6748 1223.43 26.8891 1223.61 27.0837C1223.79 27.2786 1224.15 27.5427 1224.69 27.8797C1225.35 28.2872 1225.79 28.618 1226 28.8756C1226.21 29.1331 1226.31 29.4038 1226.31 29.6857C1226.31 30.0624 1226.19 30.3649 1225.93 30.5907C1225.68 30.8161 1225.34 30.9303 1224.92 30.9303C1224.47 30.9303 1224.08 30.7728 1223.75 30.4597C1223.42 30.1457 1223.25 29.732 1223.25 29.2116H1223.04V31.0983H1223.25C1223.31 30.9201 1223.4 30.8276 1223.51 30.8276C1223.57 30.8276 1223.7 30.865 1223.9 30.9368C1224.39 31.1124 1224.79 31.1967 1225.1 31.1967C1225.64 31.1967 1226.11 31.0048 1226.49 30.6163C1226.88 30.2278 1227.07 29.7589 1227.07 29.2116C1227.07 28.7873 1226.95 28.409 1226.69 28.0808C1226.44 27.7517 1225.95 27.3672 1225.22 26.9275C1224.59 26.5455 1224.18 26.2364 1223.99 25.9943C1223.8 25.7521 1223.7 25.4857 1223.7 25.192C1223.7 24.8741 1223.82 24.6191 1224.04 24.4282C1224.27 24.2385 1224.57 24.1433 1224.95 24.1433C1225.37 24.1433 1225.72 24.2703 1226 24.523C1226.28 24.7779 1226.44 25.129 1226.49 25.5815H1226.69V23.9461H1226.5C1226.48 24.0308 1226.46 24.0833 1226.44 24.1076C1226.42 24.1319 1226.38 24.1437 1226.32 24.1437C1226.26 24.1437 1226.14 24.1154 1225.97 24.0603C1225.61 23.9373 1225.27 23.8733 1224.96 23.8733V23.8743ZM1231.72 23.8743C1231.04 23.8743 1230.42 24.0357 1229.86 24.3599C1229.3 24.6831 1228.86 25.1303 1228.53 25.7019C1228.2 26.2725 1228.04 26.8799 1228.04 27.526C1228.04 28.3935 1228.32 29.1679 1228.89 29.8458C1229.46 30.5241 1230.14 30.947 1230.94 31.1084C1231.12 31.2033 1231.38 31.4481 1231.72 31.8467C1232.1 32.293 1232.42 32.6159 1232.69 32.8081C1232.95 32.9974 1233.24 33.1421 1233.55 33.236C1233.85 33.3285 1234.18 33.3745 1234.53 33.3745C1234.96 33.3745 1235.35 33.299 1235.69 33.1438L1235.61 32.9542C1235.41 33.0261 1235.2 33.0621 1234.98 33.0605C1234.68 33.0605 1234.38 32.962 1234.08 32.7606C1233.77 32.5604 1233.39 32.1788 1232.94 31.6161C1232.73 31.3457 1232.58 31.1751 1232.5 31.1084C1233.36 30.9378 1234.08 30.5162 1234.63 29.8396C1235.19 29.1627 1235.47 28.3912 1235.47 27.526C1235.47 26.498 1235.1 25.6353 1234.38 24.9318C1233.66 24.228 1232.77 23.8743 1231.72 23.8743ZM1235.94 23.8743L1235.95 24.0974C1236.4 24.0974 1236.66 24.2306 1236.71 24.501C1236.74 24.5984 1236.75 24.7779 1236.75 25.0342L1236.74 29.9561C1236.74 30.3239 1236.69 30.5585 1236.59 30.6599C1236.49 30.761 1236.32 30.8253 1236.07 30.8496L1236.06 31.0727H1240.59L1240.71 29.9561H1240.5C1240.44 30.2599 1240.31 30.4778 1240.09 30.6008C1239.87 30.7252 1239.49 30.7879 1238.94 30.7879H1238.51C1238.01 30.7879 1237.73 30.6061 1237.65 30.2445C1237.64 30.1672 1237.63 30.0886 1237.63 30.0099L1237.65 25.0342C1237.65 24.6677 1237.69 24.4216 1237.79 24.3012C1237.89 24.1807 1238.06 24.1151 1238.31 24.0974L1238.3 23.8743H1235.94ZM1231.79 24.1433C1232.56 24.1433 1233.19 24.4485 1233.68 25.0624C1234.16 25.679 1234.4 26.5209 1234.4 27.5873C1234.4 28.5986 1234.16 29.4088 1233.67 30.0178C1233.18 30.6277 1232.53 30.9299 1231.72 30.9299C1230.94 30.9299 1230.31 30.6176 1229.83 29.9882C1229.35 29.3602 1229.11 28.5448 1229.11 27.5401C1229.11 26.5098 1229.35 25.6842 1229.84 25.066C1230.33 24.4511 1230.98 24.1433 1231.79 24.1433ZM1242.2 25.2022C1242.09 25.2022 1242.01 25.2406 1241.95 25.3151C1241.88 25.3905 1241.86 25.4804 1241.88 25.5917C1241.91 25.6996 1241.97 25.7932 1242.06 25.8739C1242.16 25.952 1242.26 25.9943 1242.37 25.9943C1242.42 25.9959 1242.47 25.9857 1242.51 25.9647C1242.55 25.9437 1242.59 25.9125 1242.62 25.8739C1242.67 25.7932 1242.69 25.6996 1242.67 25.5917C1242.65 25.4825 1242.59 25.3847 1242.5 25.3151C1242.42 25.2434 1242.31 25.2034 1242.2 25.2022ZM1245.19 25.9569C1245 26.6827 1244.59 27.0758 1243.97 27.1388L1243.98 27.3465H1244.71L1244.69 29.8048C1244.69 30.2268 1244.71 30.506 1244.73 30.6481C1244.81 30.9893 1245.03 31.1623 1245.4 31.1623C1245.94 31.1623 1246.5 30.8354 1247.09 30.1779L1246.91 30.024C1246.48 30.4571 1246.11 30.6753 1245.78 30.6753C1245.58 30.6753 1245.45 30.5585 1245.41 30.3278C1245.39 30.263 1245.39 30.1968 1245.39 30.1306L1245.4 27.3465H1246.51L1246.5 27.0157H1245.4V25.9572L1245.19 25.9569ZM1249.49 26.8838C1248.87 26.8838 1248.37 27.189 1247.97 27.7927C1247.58 28.3975 1247.46 29.0678 1247.61 29.8048C1247.7 30.2379 1247.88 30.5726 1248.16 30.8099C1248.44 31.0454 1248.79 31.1623 1249.2 31.1623C1249.59 31.1623 1250.14 31.0638 1250.37 30.8637C1250.59 30.6648 1250.81 30.3406 1251 29.897L1250.84 29.7329C1250.53 30.3072 1249.91 30.5969 1249.43 30.5969C1248.78 30.5969 1248.39 30.2392 1248.24 29.5256C1248.22 29.4289 1248.2 29.3313 1248.19 29.2332C1248.97 29.1102 1249.55 28.892 1249.95 28.577C1250.34 28.262 1250.74 27.926 1250.67 27.5732C1250.63 27.3722 1250.51 27.1937 1250.35 27.0735C1250.18 26.9491 1249.74 26.8838 1249.49 26.8838H1249.49ZM1242.69 26.9094L1241.34 27.2195V27.4607L1241.81 27.4029C1242.03 27.4029 1242.16 27.5043 1242.21 27.7081C1242.22 27.777 1242.23 27.8722 1242.23 27.9926L1242.22 30.2009C1242.21 30.5047 1242.18 30.6832 1242.11 30.7367C1242.05 30.7892 1241.86 30.8161 1241.57 30.8161L1241.57 31.0251H1243.69L1243.69 30.8161C1243.4 30.8161 1243.2 30.7931 1243.12 30.7472C1243.03 30.7022 1242.98 30.6189 1242.95 30.4919C1242.93 30.401 1242.92 30.2432 1242.92 30.0253L1242.93 26.9094H1242.69ZM1249.15 27.3183C1249.28 27.3183 1249.41 27.3682 1249.53 27.4669C1249.66 27.567 1249.73 27.6769 1249.76 27.7964C1249.88 28.3821 1249.36 28.7886 1248.2 29.014C1248.17 28.5858 1248.24 28.1977 1248.43 27.8475C1248.61 27.4964 1248.86 27.3183 1249.15 27.3183ZM1212.78 28.1015C1212.78 28.1169 1212.78 28.1222 1212.77 28.131C1212.78 28.1671 1212.78 28.2042 1212.78 28.24C1212.78 28.2157 1212.78 28.2039 1212.78 28.177L1212.78 28.1015Z" fill="#EFEFEF"/>
<path d="M1224.66 15.029C1223.86 14.3189 1222.91 14.6034 1221.96 15.448C1221.82 15.5802 1221.68 15.717 1221.54 15.8621C1219.92 17.5887 1218.42 20.7866 1217.96 23.2281C1218.14 23.5999 1218.28 24.0727 1218.37 24.4343C1218.42 24.6125 1218.46 24.7943 1218.5 24.9764C1218.5 24.9764 1218.48 24.9213 1218.42 24.7467L1218.39 24.6355C1218.38 24.6146 1218.37 24.5941 1218.36 24.5741C1218.26 24.3267 1217.96 23.805 1217.84 23.5779C1217.73 23.8785 1217.64 24.1811 1217.55 24.4855C1217.92 25.1687 1218.14 26.3388 1218.14 26.3388C1218.14 26.3388 1218.12 26.262 1218.03 25.9978C1217.95 25.7632 1217.54 25.0364 1217.44 24.8675C1217.27 25.4876 1217.21 25.907 1217.26 26.0083C1217.38 26.2055 1217.49 26.5465 1217.59 26.9235C1217.81 27.7733 1217.96 28.8076 1217.96 28.8076L1217.97 28.9792C1217.94 29.6865 1217.96 30.395 1218.02 31.1005C1218.09 31.9865 1218.23 32.7451 1218.4 33.1526L1218.52 33.087C1218.26 32.2864 1218.16 31.235 1218.2 30.0252C1218.27 28.1746 1218.7 25.9417 1219.48 23.6153C1220.8 20.1034 1222.63 17.2848 1224.31 15.9388C1222.78 17.3281 1220.71 21.8284 1220.09 23.4933C1219.4 25.3593 1218.91 27.1092 1218.61 28.7869C1219.12 27.2142 1220.78 26.5386 1220.78 26.5386C1220.78 26.5386 1221.59 25.5326 1222.53 24.0957C1221.97 24.225 1221.03 24.4481 1220.72 24.58C1220.26 24.7749 1220.14 24.8402 1220.14 24.8402C1220.14 24.8402 1221.63 23.9264 1222.91 23.5126C1224.67 20.7236 1226.59 16.7618 1224.66 15.029ZM1210.41 15.448C1209.63 15.4506 1209 16.0835 1209 16.8642V29.6853C1209 30.4663 1209.63 31.0979 1210.41 31.1005H1217.63C1217.58 30.4055 1217.57 29.7079 1217.59 29.0113C1217.59 28.9625 1217.58 28.9021 1217.58 28.8561C1217.49 28.2393 1217.37 27.6268 1217.22 27.0206C1217.12 26.658 1217.01 26.3273 1216.93 26.2055C1216.85 26.053 1216.86 25.966 1216.86 25.8709C1216.86 25.7787 1216.87 25.6825 1216.89 25.5736C1216.93 25.3019 1216.99 25.0328 1217.07 24.7661L1217.23 24.7457C1217.22 24.7185 1217.22 24.6942 1217.21 24.6699L1217.18 24.3766C1217.27 24.0675 1217.37 23.7597 1217.47 23.4545L1217.62 23.4395C1217.62 23.428 1217.62 23.4099 1217.61 23.3984L1217.58 23.155C1218.06 20.6235 1219.56 17.4088 1221.26 15.5979C1221.31 15.5441 1221.36 15.4995 1221.41 15.448H1210.41Z" fill="#EFEFEF"/>
</g>
<path fill-rule="evenodd" clip-rule="evenodd" d="M1011.17 15.2317C1010.32 12.5713 1008.94 10.2166 1007.01 8.19047C1006.53 7.67794 1005.98 7.20839 1005.64 6.57085C1005.43 6.16725 1005.22 5.75808 1005.01 5.35186L1004.88 5.01685L1004.84 5.14875C1004.82 5.81156 1004.45 6.26077 1003.98 6.68044C1003.46 7.15228 1002.97 7.66481 1002.46 8.15996L1000.91 10.2038L999.65 12.5145L998.81 14.7835L998.784 14.8186C998.322 16.3375 998.094 17.8994 997.982 19.4763C997.94 20.0693 997.988 20.6704 998.021 21.2663C998.069 22.1181 998.217 22.9551 998.439 23.7797C999.245 26.7742 1000.88 29.2577 1003.12 31.3682C1003.53 31.7603 1003.98 32.117 1004.42 32.4898L1004.61 33.1486L1004.79 34.1711L1004.87 35.2385C1004.87 35.455 1004.86 35.6726 1004.88 35.8885C1004.88 35.9439 1004.95 35.9951 1004.99 36.0483L1005.35 36.1756L1005.73 36.3223L1005.67 35.3737L1005.66 34.4392L1005.79 33.0158L1005.89 32.706L1006.16 32.2266C1006.49 31.9582 1006.85 31.7141 1007.16 31.4152C1007.71 30.8747 1008.25 30.3268 1008.75 29.7345C1009.39 28.9668 1009.94 28.1257 1010.38 27.2289C1010.67 26.6275 1010.95 26.0139 1011.18 25.3855C1011.38 24.8317 1011.51 24.2492 1011.67 23.6793L1011.71 23.5562C1012.04 22.018 1012.1 20.464 1011.98 18.9001C1011.88 17.6398 1011.58 16.4235 1011.17 15.2317ZM1004.64 31.7282C1004.69 31.4752 1004.75 31.2235 1004.8 30.9696C1004.75 31.2235 1004.69 31.4752 1004.64 31.7282ZM1018.94 37.785C1018.67 37.2656 1018.27 36.8712 1017.74 36.6123C1017.3 36.3958 1016.83 36.3006 1016.34 36.2868C1015.98 36.2763 1015.61 36.295 1015.24 36.2996C1014.92 36.3036 1014.6 36.3091 1014.27 36.3062C1013.89 36.3023 1013.51 36.2908 1013.13 36.2799C1013.06 36.278 1013.02 36.2908 1012.99 36.3551C1012.94 36.4552 1012.89 36.5516 1012.83 36.6612L1012.89 36.6816C1013.08 36.715 1013.27 36.7436 1013.46 36.7813C1013.7 36.8295 1013.81 36.9687 1013.82 37.1728C1013.84 37.4635 1013.85 37.7549 1013.85 38.0462C1013.84 39.1993 1013.83 40.3523 1013.82 41.505C1013.82 41.5811 1013.82 41.6605 1013.8 41.7321C1013.78 41.8148 1013.75 41.9217 1013.69 41.9624C1013.58 42.0337 1013.46 42.0812 1013.32 42.1019C1013.14 42.1321 1013.11 42.1403 1013.05 42.3214L1013.03 42.4119C1013 42.5107 1013.01 42.5301 1013.12 42.531C1013.71 42.5376 1014.3 42.5504 1014.89 42.5484C1015.43 42.5465 1015.97 42.5793 1016.51 42.4779C1017.01 42.3824 1017.49 42.2151 1017.92 41.9319C1018.48 41.5641 1018.88 41.0725 1019.1 40.431C1019.27 39.9129 1019.31 39.3843 1019.25 38.8426C1019.21 38.4734 1019.11 38.1146 1018.94 37.785ZM1017.9 40.9551C1017.58 41.5437 1017.11 41.9368 1016.44 42.0405C1016.02 42.1051 1015.59 42.0864 1015.19 41.9266C1014.94 41.8256 1014.84 41.6054 1014.83 41.3452C1014.83 41.0902 1014.82 40.8351 1014.82 40.58C1014.82 39.6829 1014.82 38.7858 1014.82 37.8891C1014.82 37.6065 1014.83 37.3234 1014.83 37.0405C1014.84 36.8417 1014.88 36.7751 1015.07 36.759C1015.92 36.6875 1016.74 36.7793 1017.41 37.3788C1017.83 37.7496 1018.07 38.2224 1018.16 38.7655C1018.21 38.9919 1018.22 39.2235 1018.24 39.4532C1018.22 39.9776 1018.15 40.4878 1017.9 40.9551ZM1025.05 39.9835C1024.88 39.5746 1024.56 39.3184 1024.16 39.1543C1024.03 39.0982 1023.89 39.0519 1023.74 38.9975L1023.79 38.9647C1023.95 38.8626 1024.13 38.7803 1024.26 38.6546C1024.6 38.3491 1024.74 37.9649 1024.67 37.5084C1024.61 37.0743 1024.39 36.7557 1024.01 36.549C1023.66 36.362 1023.28 36.2937 1022.88 36.294C1022.21 36.2947 1021.53 36.3049 1020.85 36.3062C1020.62 36.3065 1020.38 36.2891 1020.15 36.2858C1020.1 36.2852 1020.04 36.2967 1020.02 36.3269C1019.96 36.4089 1019.93 36.5034 1019.89 36.5946C1019.87 36.6478 1019.89 36.677 1019.95 36.6848C1020.11 36.7072 1020.28 36.735 1020.44 36.7593C1020.67 36.7931 1020.78 36.9106 1020.79 37.138L1020.79 37.2728C1020.79 37.98 1020.79 38.6871 1020.79 39.3942C1020.79 40.1003 1020.78 40.8064 1020.77 41.5125C1020.77 41.6015 1020.76 41.6907 1020.75 41.779C1020.73 41.9122 1020.66 42.0041 1020.52 42.033L1020.13 42.1091C1020.09 42.1183 1020.02 42.117 1020 42.1452C1019.93 42.2512 1019.87 42.367 1019.88 42.5068L1019.92 42.5176L1021.22 42.5494L1021.48 42.5484C1021.93 42.5432 1022.38 42.552 1022.83 42.5291C1023.31 42.5048 1023.77 42.3608 1024.19 42.113C1024.64 41.8489 1024.98 41.5007 1025.1 40.977C1025.18 40.6427 1025.18 40.3064 1025.05 39.9835ZM1021.75 36.971C1021.76 36.8289 1021.82 36.7672 1021.96 36.7636C1022.31 36.7541 1022.65 36.756 1022.99 36.8758C1023.42 37.0307 1023.69 37.4048 1023.68 37.8618C1023.68 38.0374 1023.68 38.2113 1023.62 38.3799C1023.49 38.712 1023.25 38.8872 1022.9 38.9213C1022.72 38.9397 1022.54 38.9417 1022.38 38.9502L1021.84 38.9266C1021.76 38.924 1021.73 38.8925 1021.73 38.819L1021.75 36.971ZM1023.99 41.3987C1023.81 41.7764 1023.5 41.9749 1023.1 42.0438C1022.79 42.0979 1022.46 42.0837 1022.15 42.0021C1021.92 41.9427 1021.83 41.7567 1021.78 41.5503C1021.75 41.4121 1021.75 41.2478 1021.75 41.104C1021.75 40.8822 1021.75 40.4219 1021.75 40.4219H1021.75C1021.75 40.0937 1021.75 39.8096 1021.75 39.4949C1021.75 39.427 1021.76 39.3932 1021.84 39.3958C1022.13 39.4047 1022.43 39.4096 1022.72 39.4211C1022.99 39.4313 1023.24 39.5093 1023.47 39.6344C1023.82 39.8247 1024.03 40.116 1024.09 40.5164C1024.14 40.8199 1024.12 41.1185 1023.99 41.3987ZM991.639 41.7524L991.646 39.9684C991.647 39.7 991.612 39.4368 991.525 39.1822C991.282 38.481 990.613 38.1617 989.917 38.4134C989.6 38.5279 989.317 38.7015 989.046 38.8984C988.888 39.0132 988.888 39.0132 988.774 38.8495C988.45 38.3862 987.989 38.2277 987.451 38.3986C987.104 38.5089 986.8 38.6976 986.512 38.9168C986.485 38.9371 986.431 38.9597 986.415 38.9476C986.388 38.9276 986.369 38.88 986.37 38.8442L986.39 38.5273C986.391 38.4607 986.379 38.3937 986.372 38.3238C986.242 38.3688 986.138 38.4137 986.03 38.44C985.694 38.522 985.356 38.5975 985.018 38.6746C984.937 38.6933 984.85 38.7179 984.843 38.8118C984.834 38.904 984.923 38.9194 984.992 38.9469C985.137 39.0053 985.281 39.0674 985.425 39.1304C985.545 39.1835 985.59 39.2797 985.589 39.4089C985.587 39.9618 985.591 40.5141 985.587 41.067C985.586 41.2917 985.576 41.5162 985.565 41.7409C985.556 41.9401 985.488 42.0234 985.295 42.0736C985.193 42.1005 985.089 42.1186 984.986 42.1429C984.963 42.1481 984.925 42.1626 984.924 42.1737C984.92 42.2712 984.915 42.3709 984.931 42.4658C984.934 42.4828 985.037 42.4828 985.095 42.4894L985.133 42.4871C985.531 42.4812 985.928 42.4749 986.326 42.4707C986.537 42.4684 986.748 42.4703 986.977 42.4703L987.002 42.1521C986.87 42.1281 986.753 42.1101 986.638 42.0848C986.458 42.0454 986.381 41.9499 986.376 41.7682L986.373 41.508C986.371 40.833 986.368 40.1584 986.368 39.4834C986.368 39.3853 986.409 39.3076 986.495 39.2488C986.678 39.1254 986.871 39.0273 987.085 38.9725C987.535 38.8574 987.925 39.0175 988.099 39.4004C988.153 39.5212 988.196 39.6547 988.208 39.786C988.272 40.4625 988.245 41.1398 988.206 41.8164C988.198 41.9624 988.129 42.0359 987.985 42.0717L987.647 42.1432C987.619 42.1501 987.58 42.1317 987.578 42.1544C987.57 42.2479 987.575 42.3913 987.575 42.3913H987.655L988.686 42.4251C988.969 42.4244 989.252 42.4585 989.534 42.4658C989.584 42.4667 989.629 42.4743 989.632 42.4159C989.635 42.3252 989.634 42.2344 989.629 42.1439L989.575 42.1343L989.284 42.069C989.089 42.0228 989.021 41.9483 989.02 41.7501C989.018 41.2615 989.025 40.7733 989.02 40.285C989.018 40.0058 989.007 39.7267 988.989 39.448C988.984 39.3738 988.996 39.3253 989.055 39.2836C989.226 39.1585 989.418 39.0656 989.623 39.0096C990.258 38.8423 990.778 39.1904 990.811 39.845C990.843 40.4763 990.829 41.1099 990.824 41.7426C990.823 41.9627 990.75 42.0293 990.533 42.0884L990.458 42.1078C990.236 42.1609 990.238 42.1609 990.251 42.3968C990.255 42.4707 990.276 42.4897 990.354 42.4877C990.807 42.4776 991.259 42.4749 991.712 42.471C991.897 42.4694 992.082 42.471 992.283 42.471L992.324 42.1639C992.148 42.117 991.985 42.0822 991.827 42.0307C991.688 41.9834 991.639 41.8994 991.639 41.7524ZM1007.22 39.0483C1007.41 38.8754 1007.41 38.647 1007.36 38.3934C1007.21 38.5479 1007.04 38.6191 1006.86 38.6326C1006.6 38.6506 1006.35 38.6287 1006.12 38.5279C1005.48 38.2543 1004.85 38.2736 1004.23 38.5739C1003.7 38.8259 1003.38 39.2186 1003.35 39.8142C1003.33 40.1958 1003.4 40.557 1003.65 40.8606C1003.8 41.0423 1004 41.1601 1004.22 41.2415C1004.32 41.2766 1004.32 41.3219 1004.24 41.3826C1004.19 41.4271 1004.12 41.4687 1004.06 41.5073C1003.93 41.5911 1003.79 41.6736 1003.66 41.7547C1003.58 41.8026 1003.55 41.8636 1003.58 41.9572C1003.65 42.2321 1003.85 42.3909 1004.09 42.5068L1004.18 42.5688L1004.11 42.6465C1003.87 42.8405 1003.62 43.0236 1003.39 43.2293C1003.2 43.4022 1003.13 43.6339 1003.19 43.8895C1003.31 44.3997 1003.65 44.7154 1004.13 44.8604C1004.97 45.1144 1005.75 44.9687 1006.47 44.4716C1006.9 44.1766 1007.2 43.7927 1007.3 43.2644C1007.4 42.6708 1007.07 42.1557 1006.48 42.0494C1006.09 41.9785 1005.69 41.9581 1005.3 41.9129C1005.11 41.8919 1004.92 41.8794 1004.74 41.8371C1004.59 41.801 1004.52 41.6766 1004.53 41.5552C1004.54 41.4358 1004.67 41.3245 1004.82 41.3131C1005.11 41.2894 1005.4 41.2438 1005.67 41.1204C1006.38 40.7936 1006.71 40.2214 1006.63 39.4509C1006.62 39.3473 1006.59 39.2449 1006.57 39.1241C1006.8 39.1625 1007.04 39.2206 1007.22 39.0483ZM1005.05 42.6633C1005.34 42.6718 1005.67 42.6899 1005.99 42.7834C1006.28 42.8654 1006.51 43.0091 1006.57 43.3231C1006.66 43.7025 1006.47 44.0798 1006.11 44.2826C1005.76 44.4722 1005.39 44.488 1005.01 44.4489C1004.69 44.4155 1004.4 44.3033 1004.16 44.0637C1003.85 43.7484 1003.85 43.312 1004.16 42.9976C1004.44 42.7168 1004.58 42.6587 1005.05 42.6633ZM1005.78 40.3789C1005.61 40.9206 1005.12 40.9954 1004.73 40.8222C1004.4 40.6748 1004.26 40.3848 1004.18 40.0537C1004.16 39.9264 1004.15 39.7942 1004.13 39.6639C1004.14 39.4772 1004.17 39.298 1004.25 39.13C1004.5 38.6126 1005.1 38.6434 1005.44 38.8777C1005.58 38.9781 1005.68 39.1146 1005.74 39.2764C1005.88 39.6285 1005.9 40.018 1005.78 40.3789ZM1002.71 42.1058C1002.59 42.0879 1002.47 42.062 1002.36 42.0284C1002.16 41.9673 1002.14 41.9299 1002.13 41.7189C1002.13 41.1309 1002.12 40.5429 1002.12 39.9553C1002.11 39.6908 1002.08 39.4299 1002 39.1773C1001.79 38.5112 1001.13 38.1535 1000.48 38.3501C1000.12 38.4593 999.807 38.6625 999.518 38.901L999.412 38.982L999.412 38.8734C999.419 38.7484 999.433 38.6234 999.432 38.4984C999.431 38.4331 999.406 38.3675 999.394 38.3101C999.147 38.3845 998.925 38.4593 998.699 38.5164C998.473 38.5735 998.241 38.6123 998.012 38.6588C997.898 38.6818 997.814 38.7507 997.816 38.8291C997.819 38.9397 997.911 38.961 997.991 38.9942C998.136 39.0536 998.281 39.1136 998.424 39.1773C998.526 39.2229 998.568 39.3076 998.567 39.4175C998.56 40.1817 998.555 40.9462 998.544 41.7107C998.541 41.9522 998.48 42.0159 998.242 42.069L998.139 42.0897C997.919 42.1275 997.912 42.1363 997.928 42.3683L997.929 42.4067C997.926 42.4959 997.965 42.5248 998.057 42.5238C998.641 42.5169 999.226 42.5137 999.81 42.516C1000.06 42.5169 1000.09 42.4973 1000.08 42.24L1000.07 42.1294C999.927 42.1055 999.79 42.0881 999.656 42.0585C999.516 42.0274 999.466 41.97 999.453 41.8275C999.441 41.6973 999.437 41.565 999.435 41.4338C999.429 40.833 999.423 40.2322 999.421 39.6317C999.42 39.4805 999.448 39.34 999.587 39.2426C999.792 39.0963 1000.03 39.0097 1000.28 38.9925C1000.81 38.9568 1001.2 39.2655 1001.23 39.785C1001.26 40.4258 1001.25 41.0689 1001.26 41.7111C1001.26 41.759 1001.25 41.8072 1001.25 41.8548C1001.24 41.9486 1001.19 42.0192 1001.09 42.0435C1001 42.0677 1000.91 42.0894 1000.81 42.1038C1000.67 42.1248 1000.67 42.1238 1000.66 42.2666L1000.66 42.3627C1000.68 42.5288 1000.68 42.5238 1000.85 42.5222C1001.41 42.5176 1001.98 42.5146 1002.54 42.5153C1002.78 42.516 1002.79 42.5048 1002.79 42.2613L1002.79 42.2036C1002.8 42.1412 1002.77 42.116 1002.71 42.1058ZM1010.6 38.3904C1010.01 38.2457 1009.44 38.3534 1008.91 38.6293C1008.39 38.8974 1008.05 39.3118 1007.91 39.8841C1007.78 40.4625 1007.84 41.0269 1008.1 41.5641C1008.27 41.9129 1008.52 42.1826 1008.87 42.3578C1009.69 42.7686 1010.68 42.5822 1011.32 42.0326C1011.83 41.5992 1012.01 41.022 1012.03 40.3077C1012.02 40.2361 1012.01 40.0983 1011.99 39.9618C1011.89 39.1842 1011.35 38.5735 1010.6 38.3904ZM1011.05 41.3944C1010.89 42.0133 1010.35 42.2882 1009.75 42.0756C1009.44 41.9673 1009.21 41.7603 1009.06 41.4804C1008.7 40.8373 1008.63 40.1535 1008.84 39.4519C1008.97 38.9847 1009.35 38.7291 1009.81 38.7612C1010.22 38.7898 1010.54 38.986 1010.77 39.3187C1011.01 39.6698 1011.1 40.0691 1011.13 40.4885C1011.13 40.5557 1011.13 40.623 1011.13 40.6906L1011.16 40.6939C1011.12 40.9278 1011.1 41.1664 1011.05 41.3944ZM995.702 38.3803C995.079 38.2379 994.495 38.3786 993.955 38.6953C993.487 38.9689 993.185 39.3778 993.069 39.912C992.96 40.411 993.005 40.9016 993.182 41.3797C993.289 41.671 993.452 41.9273 993.691 42.1271C994.195 42.5475 994.784 42.6538 995.41 42.5366C995.94 42.4372 996.406 42.2016 996.745 41.7609C997.062 41.3488 997.183 40.8757 997.195 40.3628C997.176 40.2004 997.172 40.035 997.137 39.8765C996.966 39.0854 996.503 38.563 995.702 38.3803ZM996.21 41.3925C996.059 42.008 995.515 42.2899 994.915 42.0773C994.53 41.9404 994.28 41.6586 994.121 41.2973C993.867 40.7168 993.815 40.1128 993.98 39.5005C994.106 39.0323 994.486 38.6874 995.067 38.7701C995.423 38.8206 995.702 39.0027 995.909 39.2925C996.189 39.6833 996.281 40.1308 996.294 40.601V40.6972L996.318 40.7008C996.283 40.9318 996.266 41.1667 996.21 41.3925Z" fill="#EFEFEF"/>
<path d="M1158.74 8.02356C1158.67 8.04325 1158.33 8.15809 1157.96 8.27622C1156.01 8.91278 1154.63 9.65106 1154.29 10.2384C1154.16 10.4615 1154.14 10.6453 1154.21 10.8257C1154.3 11.0292 1154.46 11.1867 1154.89 11.4918C1155.09 11.6362 1155.44 11.9315 1155.66 12.1547C1156.74 13.2243 1157.25 14.5368 1157.2 16.02C1157.13 17.6901 1156.35 19.3603 1154.85 21.0272C1154.33 21.6112 1153.79 22.0968 1152.76 22.9204C1151.91 23.6062 1151.44 24.0525 1151.12 24.4823C1150.15 25.8079 1150.41 26.9892 1151.89 27.9768C1153.2 28.8497 1155.51 29.5748 1158.23 29.9686C1159.14 30.0998 1160.17 30.1851 1160.42 30.149L1160.6 30.1228L1160.87 29.6306C1162.25 27.1467 1162.95 24.8006 1163.03 22.3757C1163.07 21.2929 1162.93 20.0132 1162.7 19.2651C1162.66 19.1306 1162.63 19.0157 1162.63 19.0125C1162.64 19.0092 1163.02 18.8911 1163.49 18.7532C1165.95 18.0215 1168.33 17.444 1170.29 17.1028C1170.67 17.0372 1171 16.9682 1171.02 16.9518C1171.12 16.8501 1170.82 16.3711 1170.32 15.8592C1168.48 13.9626 1165.23 12.5189 1161.42 11.902C1160.68 11.7839 1160.59 11.7412 1160.32 11.3803C1159.89 10.8061 1159.48 9.82825 1158.93 8.0334C1158.91 7.97434 1158.89 7.97434 1158.74 8.02356ZM1158.99 8.6995C1159.2 9.28356 1159.33 9.73965 1159.33 9.90044V10.0284L1159.15 10.0087C1158.17 9.89387 1156.6 9.65106 1156.27 9.56247C1156.18 9.5395 1156.14 9.50669 1156.15 9.48044C1156.18 9.44106 1156.51 9.28028 1157.5 8.83075C1158.42 8.41075 1158.77 8.25653 1158.8 8.25325C1158.82 8.24997 1158.9 8.4534 1158.99 8.6995ZM1156.91 9.92997C1158.11 10.1826 1158.99 10.3401 1159.18 10.3401C1159.36 10.3401 1159.34 10.3565 1158.46 10.8947C1157.78 11.3081 1157.7 11.3475 1157.53 11.3475H1157.35L1156.84 10.8389C1156.23 10.222 1155.82 9.76919 1155.82 9.71669C1155.82 9.697 1155.83 9.69044 1155.85 9.70028C1155.86 9.70356 1156.35 9.80856 1156.91 9.92997ZM1156.03 10.4976C1156.32 10.8422 1156.55 11.1309 1156.54 11.1407C1156.51 11.1637 1155.67 10.957 1155.16 10.7995C1154.71 10.6617 1154.66 10.6157 1154.77 10.4615C1154.85 10.3598 1155.43 9.87747 1155.47 9.87419C1155.49 9.87419 1155.73 10.1531 1156.03 10.4976ZM1159.85 11.2064C1159.97 11.4853 1160.06 11.7117 1160.06 11.715C1160.05 11.7182 1158.47 11.4754 1158.34 11.4492C1158.31 11.4426 1158.57 11.2622 1158.93 11.0423C1159.3 10.8225 1159.6 10.6584 1159.61 10.6748C1159.63 10.6912 1159.73 10.9275 1159.85 11.2064ZM1156.42 11.7379C1156.45 11.7675 1156.82 12.9782 1156.81 12.9947C1156.8 13.0012 1156.62 12.7945 1156.41 12.532C1156.2 12.2695 1155.88 11.8987 1155.69 11.7084L1155.35 11.3573L1155.87 11.5378C1156.16 11.6329 1156.4 11.7248 1156.42 11.7379ZM1157.92 11.8987C1158.58 11.9906 1159.12 12.0759 1159.13 12.0857C1159.14 12.0956 1158.74 12.404 1158.25 12.7682C1157.76 13.1325 1157.36 13.4278 1157.35 13.4212C1157.34 13.4147 1157.29 13.2637 1157.24 13.08C1157.18 12.8995 1157.04 12.5222 1156.93 12.24C1156.81 11.9578 1156.72 11.7281 1156.73 11.7281C1156.73 11.7281 1157.27 11.8068 1157.92 11.8987ZM1159.56 12.4204C1159.71 12.7584 1159.76 13.08 1159.79 13.7264C1159.8 14.0742 1159.8 14.3564 1159.79 14.3564C1159.78 14.3564 1159.57 14.2842 1159.33 14.1989C1158.85 14.025 1157.91 13.7165 1157.8 13.6936C1157.75 13.6837 1157.98 13.4672 1158.58 12.9553C1159.04 12.555 1159.43 12.2301 1159.45 12.2301C1159.47 12.2301 1159.52 12.3154 1159.56 12.4204ZM1161.25 12.5025C1161.97 12.6501 1162.6 12.7814 1162.65 12.7945C1162.72 12.8109 1162.55 12.9192 1161.79 13.3392C1161.26 13.6279 1160.66 13.9561 1160.46 14.0709C1160.26 14.1857 1160.09 14.2743 1160.08 14.2711C1160.08 14.2678 1160.1 14.1595 1160.13 14.0315C1160.24 13.5623 1160.17 12.9782 1159.95 12.5123C1159.89 12.3778 1159.84 12.2564 1159.84 12.2498C1159.84 12.2137 1159.97 12.24 1161.25 12.5025ZM1163.22 13.3851C1163.18 13.5492 1163.1 13.8281 1163.04 14.0086C1162.9 14.4056 1162.4 15.4392 1162.33 15.4654C1162.3 15.4753 1162.06 15.367 1161.8 15.2226C1161.54 15.0782 1161.17 14.8879 1160.97 14.7993L1160.61 14.6386L1161.93 13.7887C1163.03 13.0865 1163.26 12.952 1163.27 13.0143C1163.28 13.057 1163.26 13.2211 1163.22 13.3851ZM1164.19 13.0832C1165.56 13.477 1167.01 14.0086 1166.92 14.0873C1166.91 14.1037 1166.73 14.1628 1166.53 14.2186C1165.49 14.5106 1164.05 15.0093 1163.38 15.3079C1163.17 15.3998 1162.99 15.4687 1162.98 15.4556C1162.97 15.4457 1163.05 15.1439 1163.16 14.7829C1163.38 14.0742 1163.63 13.1193 1163.63 12.9979C1163.63 12.9454 1163.65 12.9257 1163.7 12.9389C1163.73 12.952 1163.95 13.0176 1164.19 13.0832ZM1158.28 14.5073C1158.6 14.609 1158.96 14.7501 1159.1 14.819C1159.34 14.9404 1159.34 14.9437 1159.28 15.0192C1159.15 15.157 1157.79 16.4268 1157.75 16.44C1157.73 16.4465 1157.71 16.2562 1157.71 15.9773C1157.71 15.495 1157.66 14.6222 1157.62 14.4286C1157.58 14.2809 1157.61 14.2842 1158.28 14.5073ZM1167 14.76C1166.7 15.2554 1166.21 15.9609 1165.85 16.4072C1165.49 16.8632 1164.72 17.7197 1164.67 17.7197C1164.65 17.7197 1164.54 17.5818 1164.42 17.4112C1163.98 16.7845 1163.47 16.2431 1163.03 15.9281C1162.98 15.8986 1162.96 15.8657 1162.97 15.8559C1162.98 15.8461 1163.71 15.577 1164.59 15.2554C1166.38 14.609 1167.16 14.3465 1167.21 14.3793C1167.22 14.3826 1167.12 14.5532 1167 14.76ZM1168.12 14.6747C1169.35 15.5343 1170.19 16.23 1170.49 16.6467C1170.56 16.7517 1170.62 16.8403 1170.61 16.8468C1170.61 16.8534 1170.21 16.8961 1169.73 16.9453C1167.82 17.1323 1166.45 17.3259 1165.73 17.5097C1165.54 17.5589 1165.38 17.595 1165.38 17.5917C1165.37 17.5884 1165.5 17.4309 1165.66 17.2373C1166.49 16.2365 1167.25 15.1964 1167.53 14.655C1167.6 14.5106 1167.68 14.3957 1167.69 14.3957C1167.7 14.3957 1167.9 14.5204 1168.12 14.6747ZM1161.21 15.7411C1161.45 15.869 1161.63 15.9839 1161.62 16.0036C1161.6 16.0397 1159.52 17.1782 1159.5 17.1618C1159.5 17.1586 1159.6 16.8173 1159.74 16.4006C1159.88 15.9839 1160.01 15.5311 1160.04 15.3932L1160.08 15.1406L1160.43 15.3276C1160.63 15.4293 1160.98 15.6131 1161.21 15.7411ZM1159.47 15.8067C1159.27 16.5023 1158.86 17.4014 1158.67 17.5556C1158.63 17.5917 1158.55 17.5425 1158.27 17.3193C1158.08 17.1651 1157.88 17.0109 1157.83 16.9748C1157.78 16.9387 1157.74 16.9026 1157.75 16.8928C1157.9 16.7517 1159.55 15.4162 1159.56 15.4359C1159.56 15.449 1159.52 15.6164 1159.47 15.8067ZM1163.24 17.0175C1163.55 17.2275 1164.24 17.8476 1164.21 17.887C1164.2 17.8968 1163.49 18.1265 1162.64 18.3956C1161.79 18.6647 1160.84 18.9698 1160.54 19.0715C1160.23 19.1765 1159.97 19.2553 1159.97 19.252C1159.96 19.2487 1160.18 19.0026 1160.45 18.704C1161.14 17.9264 1161.86 17.0962 1162.11 16.7681L1162.33 16.4859L1162.62 16.6401C1162.77 16.7254 1163.05 16.8961 1163.24 17.0175ZM1161.62 16.5712C1161.61 16.5975 1161.42 16.8337 1161.21 17.0995C1161 17.3653 1160.49 18.0117 1160.09 18.5367L1159.34 19.4915L1159.32 19.3307C1159.28 19.019 1159.11 18.4054 1159.01 18.1987L1158.92 17.9887L1159.39 17.7525C1159.88 17.5097 1160.89 16.9584 1161.37 16.6795C1161.66 16.5089 1161.68 16.499 1161.62 16.5712ZM1157.69 17.7262C1157.88 17.8247 1158.06 17.9559 1158.06 17.9953C1158.06 18.0576 1156.8 19.0289 1156.77 18.9928C1156.76 18.9829 1156.87 18.7598 1157.02 18.494C1157.17 18.2282 1157.32 17.9297 1157.35 17.8279C1157.39 17.7262 1157.44 17.6442 1157.47 17.6442C1157.5 17.6409 1157.6 17.6803 1157.69 17.7262ZM1158.76 18.9206C1158.84 19.0912 1158.93 19.567 1158.89 19.6097C1158.87 19.6261 1158.35 19.8722 1157.73 20.1576C1157.12 20.4398 1156.31 20.8204 1155.94 21.0042C1155.58 21.1879 1155.3 21.3159 1155.33 21.2929C1155.35 21.27 1155.76 20.9287 1156.23 20.5415C1157.13 19.7901 1158.16 18.8911 1158.35 18.6909L1158.46 18.5695L1158.58 18.6745C1158.64 18.7336 1158.72 18.8451 1158.76 18.9206ZM1157.74 18.9107C1157.65 18.9928 1157.17 19.4128 1156.67 19.8459C1156.17 20.279 1155.57 20.8007 1155.34 21.0042C1154.87 21.4143 1154.87 21.4143 1155.47 20.6301C1155.94 20.0231 1156.18 19.7967 1156.85 19.3472C1157.17 19.1306 1157.82 18.7631 1157.88 18.7631C1157.89 18.7631 1157.83 18.8287 1157.74 18.9107ZM1162.43 19.3242C1162.45 19.4522 1162.48 19.8492 1162.49 20.2036L1162.52 20.85L1162.37 20.7811C1161.85 20.5415 1160.39 19.7212 1160.45 19.6982C1160.77 19.5703 1162.34 19.0486 1162.36 19.0682C1162.37 19.0814 1162.4 19.1962 1162.43 19.3242ZM1161.19 20.4825C1161.8 20.8401 1162.3 21.1354 1162.31 21.142C1162.31 21.1486 1162.24 21.2142 1162.14 21.2864C1161.94 21.4275 1159.89 22.4906 1159.86 22.4643C1159.85 22.4545 1159.88 22.2773 1159.92 22.0739C1160.01 21.6604 1160.08 20.4267 1160.05 20.0362C1160.03 19.8984 1160.04 19.8 1160.06 19.8131C1160.07 19.8229 1160.58 20.1248 1161.19 20.4825ZM1159.51 20.22C1159.56 20.6039 1159.51 21.375 1159.4 21.7786C1159.28 22.2511 1159.21 22.4479 1159.15 22.4643C1159.08 22.4873 1158.63 22.0804 1158.36 21.7392C1158.08 21.3947 1157.72 20.7482 1157.78 20.6957C1157.81 20.6629 1159.41 20.0034 1159.46 20.0034C1159.48 20.0001 1159.5 20.0986 1159.51 20.22ZM1157.55 21.1847C1157.72 21.5357 1158.11 22.0411 1158.53 22.4709C1158.8 22.7465 1158.87 22.8351 1158.83 22.8647C1158.64 22.9926 1157.79 23.3929 1157.25 23.6029C1156.59 23.8589 1155.74 24.1542 1155.73 24.1279C1155.72 24.1181 1155.91 23.7637 1156.16 23.3404C1156.69 22.4184 1157.36 21.1092 1157.36 21.0009C1157.37 20.8664 1157.42 20.9222 1157.55 21.1847ZM1156.54 21.2076C1156.53 21.2339 1156.45 21.4373 1156.36 21.6604C1155.98 22.6186 1155.25 23.9212 1155.09 23.9212C1154.96 23.9212 1154.77 23.1632 1154.72 22.4348L1154.69 22.0673L1155.59 21.6145C1156.09 21.3651 1156.51 21.1617 1156.53 21.1617C1156.55 21.1584 1156.55 21.1814 1156.54 21.2076ZM1162.54 22.0936C1162.55 22.6448 1162.32 23.9803 1162.19 24.1148C1162.14 24.1706 1161.57 23.9606 1161.06 23.6948C1160.6 23.4586 1159.84 22.9893 1159.84 22.9401C1159.84 22.927 1159.95 22.8679 1160.1 22.8089C1160.37 22.694 1161.64 22.0148 1162.18 21.6965L1162.49 21.5128L1162.51 21.6539C1162.53 21.7326 1162.54 21.9328 1162.54 22.0936ZM1154.07 22.7301C1154.13 23.1665 1154.26 23.7014 1154.43 24.1247C1154.5 24.2986 1154.55 24.4495 1154.54 24.4561C1154.47 24.5151 1151.77 25.26 1151.41 25.3157L1151.24 25.342L1151.27 25.2107C1151.31 25.0237 1151.57 24.4922 1151.76 24.2034C1152 23.8457 1152.6 23.2453 1153 22.9664C1153.29 22.7597 1154 22.3429 1154.02 22.3692C1154.03 22.3725 1154.05 22.5332 1154.07 22.7301ZM1160.2 23.6522C1161.03 24.0525 1161.35 24.1903 1161.75 24.3281L1162.05 24.4331L1161.86 24.5315C1160.77 25.0861 1158.83 25.8736 1158.33 25.972C1158.22 25.995 1158.21 25.9884 1158.23 25.9326C1158.31 25.7095 1159.47 23.324 1159.49 23.324C1159.51 23.324 1159.83 23.4717 1160.2 23.6522ZM1158.73 23.5636C1158.67 23.8457 1158.36 24.7547 1158.17 25.1681C1158.01 25.529 1157.64 26.2279 1157.58 26.2936C1157.55 26.3231 1156.89 25.9523 1156.57 25.7292C1156.22 25.4798 1155.46 24.7382 1155.48 24.6693C1155.49 24.6431 1155.95 24.4626 1156.52 24.269C1157.71 23.8589 1158.37 23.6128 1158.56 23.5111C1158.75 23.4126 1158.76 23.4192 1158.73 23.5636ZM1162.05 24.817C1162.04 24.899 1161.98 25.2567 1161.9 25.6209C1161.68 26.7562 1161.4 27.5339 1161.23 27.5339C1160.98 27.5339 1159.33 27.1336 1158.8 26.9432C1158.43 26.8153 1158.12 26.6676 1158.02 26.579C1157.95 26.5232 1157.99 26.5036 1158.46 26.31C1159.99 25.6865 1161.75 24.8892 1161.94 24.7382C1162.06 24.6464 1162.07 24.6595 1162.05 24.817ZM1154.31 25.1648C1154.14 25.4765 1153.78 25.9884 1153.1 26.9039L1152.53 27.6848L1152.35 27.5601C1152.11 27.3862 1151.72 26.9662 1151.56 26.7004C1151.39 26.415 1151.27 26.0606 1151.26 25.7915L1151.25 25.5815L1151.53 25.552C1151.92 25.5126 1153 25.2895 1153.78 25.0861C1154.13 24.9942 1154.42 24.9253 1154.43 24.9286C1154.43 24.9384 1154.38 25.0434 1154.31 25.1648ZM1155.99 25.9687C1156.19 26.1065 1156.45 26.2837 1156.59 26.3625L1156.83 26.5068L1156.72 26.5528C1156.66 26.579 1155.76 26.9072 1154.72 27.2812C1152.95 27.9211 1152.83 27.9604 1152.78 27.8948C1152.75 27.8554 1152.73 27.8161 1152.74 27.8029C1152.74 27.7898 1153.22 27.1697 1153.8 26.4248L1154.86 25.0697L1155.25 25.3945C1155.47 25.575 1155.8 25.8309 1155.99 25.9687ZM1156.43 28.0064C1156.04 28.5872 1155.72 29.0761 1155.7 29.0892C1155.67 29.1286 1155.05 28.9842 1154.59 28.8267C1154.1 28.6626 1153.5 28.3607 1153.27 28.1573L1153.1 28.0097L1153.48 27.9047C1155.05 27.4781 1157.12 26.9301 1157.13 26.9367C1157.13 26.9432 1156.82 27.4256 1156.43 28.0064ZM1158.29 27.127C1159.12 27.4125 1159.88 27.5732 1160.86 27.6782L1161.13 27.7078L1160.39 27.9703C1158.57 28.6298 1157.09 29.0925 1156.35 29.2368C1156.14 29.2762 1155.95 29.3123 1155.93 29.3123C1155.91 29.3123 1156.06 29.1089 1156.26 28.8595C1156.82 28.1803 1157.42 27.4059 1157.58 27.1664C1157.66 27.0515 1157.74 26.9531 1157.76 26.9531C1157.78 26.9564 1158.02 27.0318 1158.29 27.127ZM1161.01 28.6626C1160.7 29.4731 1160.47 29.9686 1160.39 29.9981C1160.23 30.0572 1158.08 29.7422 1157.42 29.5617C1156.98 29.4436 1156.7 29.3287 1156.78 29.2992C1156.82 29.2893 1157.13 29.2139 1157.48 29.1351C1158.62 28.8792 1160.36 28.3509 1161.08 28.0425C1161.17 28.0031 1161.25 27.9736 1161.26 27.9801C1161.27 27.9867 1161.16 28.2918 1161.01 28.6626ZM1148.26 29.3484C1148.11 29.414 1148.04 29.542 1148.02 29.7815C1148 30.0047 1148 30.0079 1147.89 30.0079C1147.78 30.0079 1147.78 30.0145 1147.79 30.172C1147.8 30.3197 1147.81 30.3361 1147.91 30.3492L1148.01 30.3623V31.5632L1148.19 31.5468L1148.38 31.5337L1148.39 30.9431L1148.4 30.3525H1148.94V30.7856C1148.94 31.3237 1149 31.4648 1149.23 31.5436C1149.34 31.5797 1149.43 31.5862 1149.54 31.5632C1149.69 31.5337 1149.69 31.5239 1149.71 31.3664L1149.72 31.199L1149.59 31.222C1149.37 31.2614 1149.36 31.2351 1149.36 30.6904L1149.37 30.3557H1149.48C1149.67 30.3557 1149.71 30.3197 1149.71 30.1589V30.0079H1149.37V29.8636C1149.37 29.6503 1149.33 29.6142 1149.13 29.6273L1148.96 29.6372L1148.95 29.8209L1148.93 30.0047H1148.4V29.8734C1148.4 29.6929 1148.49 29.6043 1148.66 29.6372C1148.78 29.6601 1148.79 29.6601 1148.79 29.5322C1148.79 29.4632 1148.76 29.3812 1148.74 29.355C1148.69 29.309 1148.38 29.3025 1148.26 29.3484ZM1139.71 29.4107C1139.55 29.5289 1139.63 29.775 1139.84 29.775C1140.05 29.775 1140.09 29.7454 1140.09 29.5781C1140.09 29.3648 1139.9 29.2795 1139.71 29.4107ZM1136.87 29.5157C1136.81 29.5584 1136.81 29.6568 1136.82 30.5493L1136.83 31.5337L1137.01 31.5468L1137.19 31.56V30.7036C1137.19 30.2311 1137.2 29.8537 1137.21 29.8636C1137.23 29.8734 1137.34 30.1851 1137.46 30.5559C1137.59 30.9267 1137.72 31.304 1137.76 31.3959L1137.82 31.5632L1138.01 31.5468L1138.21 31.5337L1138.5 30.7134L1138.8 29.8931L1138.82 30.7134C1138.83 31.1662 1138.84 31.5403 1138.85 31.5468C1138.85 31.5534 1138.94 31.5534 1139.04 31.5468L1139.22 31.5337L1139.23 30.5526C1139.24 29.8603 1139.23 29.5551 1139.19 29.5157C1139.13 29.4304 1138.69 29.4468 1138.61 29.5354C1138.58 29.5748 1138.44 29.8931 1138.31 30.2409C1138.18 30.5887 1138.06 30.8873 1138.05 30.9037C1138.03 30.9201 1137.92 30.6412 1137.79 30.2868C1137.66 29.9259 1137.52 29.6043 1137.47 29.5551C1137.4 29.4862 1137.34 29.4665 1137.16 29.4665C1137.04 29.4665 1136.91 29.4895 1136.87 29.5157ZM1140.85 30.0079C1140.57 30.0998 1140.4 30.3918 1140.4 30.802C1140.4 31.2614 1140.57 31.5107 1140.94 31.5731C1141.11 31.6026 1141.39 31.537 1141.49 31.4484C1141.56 31.3893 1141.59 31.1695 1141.53 31.1203C1141.52 31.1072 1141.45 31.1301 1141.37 31.1728C1141.09 31.3237 1140.89 31.2384 1140.82 30.9464C1140.78 30.7528 1140.82 30.5034 1140.93 30.3951C1141.01 30.3065 1141.21 30.3 1141.37 30.382C1141.52 30.4575 1141.56 30.4312 1141.56 30.2606C1141.56 30.1654 1141.54 30.1129 1141.47 30.0703C1141.35 29.9882 1141 29.9587 1140.85 30.0079ZM1142.35 30.0867C1142.22 30.2048 1142.22 30.2048 1142.21 30.1162C1142.2 30.0407 1142.17 30.0243 1142.03 30.0145L1141.87 30.0014V31.5501H1142.25V31.0711C1142.25 30.592 1142.25 30.592 1142.37 30.4673C1142.46 30.3656 1142.5 30.3459 1142.62 30.359C1142.76 30.3754 1142.79 30.3426 1142.79 30.1622C1142.79 29.939 1142.57 29.8997 1142.35 30.0867ZM1143.42 30.0145C1143.11 30.1064 1142.92 30.4706 1142.96 30.9004C1143 31.2975 1143.2 31.5239 1143.57 31.5764C1144.22 31.665 1144.64 31.1334 1144.46 30.464C1144.35 30.0703 1143.9 29.8734 1143.42 30.0145ZM1143.88 30.3164C1144.08 30.4247 1144.13 30.8972 1143.97 31.1203C1143.86 31.2581 1143.63 31.2843 1143.49 31.1728C1143.4 31.1039 1143.39 31.0711 1143.39 30.7823C1143.39 30.4837 1143.4 30.4607 1143.5 30.3722C1143.61 30.2737 1143.76 30.254 1143.88 30.3164ZM1145.02 30.0243C1144.82 30.1097 1144.75 30.2245 1144.75 30.4378C1144.75 30.6675 1144.82 30.7528 1145.17 30.9168C1145.36 31.012 1145.41 31.0481 1145.41 31.1301C1145.41 31.199 1145.38 31.2384 1145.3 31.2647C1145.2 31.2975 1145.11 31.2811 1144.8 31.1826C1144.74 31.1629 1144.73 31.1793 1144.74 31.3106C1144.75 31.4353 1144.77 31.4714 1144.86 31.5173C1145.02 31.5961 1145.41 31.5895 1145.57 31.5042C1145.81 31.3795 1145.88 31.0022 1145.71 30.8118C1145.67 30.7692 1145.53 30.6806 1145.39 30.615C1145.13 30.4936 1145.07 30.405 1145.16 30.3C1145.22 30.2311 1145.39 30.2311 1145.56 30.3032C1145.68 30.3525 1145.7 30.3525 1145.72 30.3065C1145.76 30.2015 1145.71 30.0768 1145.62 30.0276C1145.49 29.9587 1145.16 29.9587 1145.02 30.0243ZM1146.58 29.9981C1146.24 30.1195 1146.09 30.3262 1146.06 30.6937C1146.02 31.1465 1146.18 31.4353 1146.53 31.5403C1147.13 31.7142 1147.59 31.3697 1147.59 30.7561C1147.58 30.3853 1147.42 30.1129 1147.13 30.0145C1146.99 29.9686 1146.69 29.9587 1146.58 29.9981ZM1147.03 30.3722C1147.13 30.4575 1147.14 30.4837 1147.14 30.7561C1147.14 31.012 1147.13 31.0579 1147.05 31.1465C1146.92 31.2745 1146.7 31.2843 1146.58 31.1695C1146.48 31.0711 1146.45 30.9431 1146.48 30.6773C1146.49 30.5034 1146.51 30.4443 1146.6 30.3689C1146.73 30.2507 1146.9 30.254 1147.03 30.3722ZM1139.67 30.7692L1139.68 31.537H1140.07V30.0276L1139.87 30.0178L1139.66 30.0047L1139.67 30.7692ZM1137.83 32.5017C1137.33 32.61 1136.96 32.8823 1136.76 33.2859C1136.64 33.532 1136.63 33.5681 1136.63 33.9684C1136.63 34.3556 1136.64 34.4147 1136.74 34.6115C1136.94 35.0348 1137.32 35.3334 1138.12 35.6943C1138.98 36.0881 1139.22 36.3309 1139.22 36.8329C1139.22 37.289 1139.01 37.5614 1138.54 37.7057C1138.07 37.8501 1137.61 37.7812 1137 37.4793C1136.8 37.3776 1136.62 37.289 1136.61 37.2825C1136.59 37.2759 1136.56 37.2989 1136.52 37.3317C1136.45 37.4072 1136.43 37.7812 1136.5 37.9059C1136.65 38.1782 1137.41 38.4309 1138.07 38.4309C1139.31 38.4309 1140.11 37.6926 1140.04 36.6065C1140.03 36.3703 1140 36.2554 1139.9 36.0586C1139.71 35.6681 1139.46 35.4647 1138.7 35.0939C1138.35 34.9232 1137.96 34.7165 1137.84 34.6345C1137.36 34.3129 1137.25 33.765 1137.59 33.3843C1137.78 33.1711 1137.97 33.1022 1138.36 33.0989C1138.73 33.0989 1138.88 33.1382 1139.31 33.3548C1139.67 33.5418 1139.71 33.5254 1139.71 33.1612C1139.71 32.8331 1139.69 32.8036 1139.35 32.6493C1138.91 32.4557 1138.31 32.3967 1137.83 32.5017ZM1143 32.4787C1142.27 32.5968 1141.7 32.9512 1141.32 33.532C1141.13 33.8273 1141.03 34.1029 1140.93 34.5689C1140.82 35.0775 1140.85 36.2095 1140.98 36.6754C1141.29 37.8206 1142 38.3718 1143.2 38.4243C1143.84 38.4506 1144.09 38.4047 1144.71 38.1389C1144.73 38.129 1144.84 38.1947 1144.94 38.2832C1145.34 38.6311 1146.22 39.1298 1146.53 39.1889C1146.72 39.225 1146.77 39.1626 1146.77 38.8936C1146.77 38.7689 1146.76 38.6409 1146.75 38.6048C1146.74 38.5687 1146.55 38.4539 1146.34 38.3456C1146.01 38.1815 1145.34 37.755 1145.34 37.7057C1145.34 37.6959 1145.41 37.6106 1145.48 37.5122C1145.79 37.1053 1145.98 36.5376 1146.04 35.8026C1146.09 35.2415 1146.05 34.6411 1145.92 34.1751C1145.68 33.3318 1145.12 32.7511 1144.32 32.5345C1144.05 32.4689 1143.29 32.4328 1143 32.4787ZM1144.16 33.217C1144.62 33.3876 1144.92 33.7354 1145.1 34.2768C1145.19 34.5492 1145.21 34.6739 1145.22 35.2514C1145.24 36.0257 1145.19 36.3998 1144.98 36.8329C1144.66 37.5286 1143.95 37.8764 1143.12 37.7484C1142.08 37.5909 1141.63 36.8132 1141.68 35.2875C1141.71 34.4114 1141.87 33.952 1142.28 33.5648C1142.52 33.3351 1142.69 33.2334 1142.97 33.1645C1143.29 33.0792 1143.86 33.1054 1144.16 33.217ZM1153.45 32.505C1152.98 32.6198 1152.58 32.9151 1152.4 33.2695C1152.2 33.6764 1152.2 34.2506 1152.38 34.6214C1152.6 35.0578 1152.9 35.2842 1153.82 35.7206C1154.51 36.052 1154.75 36.2456 1154.84 36.5704C1154.95 36.9543 1154.81 37.3547 1154.49 37.5647C1153.99 37.8895 1153.27 37.837 1152.51 37.4203C1152.16 37.2332 1152.11 37.2529 1152.11 37.5843C1152.11 37.8928 1152.16 37.9847 1152.37 38.1061C1153.01 38.4867 1154.09 38.5359 1154.76 38.2209C1155.56 37.8403 1155.93 36.8395 1155.55 36.0454C1155.5 35.9437 1155.36 35.7665 1155.24 35.6451C1155.05 35.4581 1154.89 35.3662 1154.26 35.0545C1153.2 34.5361 1152.99 34.3129 1153.05 33.7847C1153.09 33.5222 1153.22 33.3286 1153.47 33.2072C1153.63 33.1218 1153.73 33.1054 1153.98 33.1054C1154.36 33.1054 1154.52 33.1448 1154.9 33.3417C1155.23 33.509 1155.3 33.5222 1155.33 33.4303C1155.38 33.3154 1155.36 32.9315 1155.3 32.8495C1155.23 32.7445 1154.84 32.5739 1154.52 32.505C1154.19 32.4361 1153.75 32.4328 1153.45 32.505ZM1147.44 32.5673C1147.4 32.6034 1147.39 33.2826 1147.39 35.3892V38.1651L1147.49 38.2603L1147.58 38.3554H1148.96C1150.01 38.3554 1150.33 38.3423 1150.37 38.3062C1150.43 38.2307 1150.45 38.0043 1150.42 37.8534L1150.39 37.7189L1149.29 37.6992L1148.19 37.6795L1148.18 35.13C1148.17 33.1514 1148.16 32.5739 1148.13 32.5509C1148.04 32.505 1147.49 32.5148 1147.44 32.5673ZM1157.75 34.0176C1157.57 34.0472 1157.19 34.1948 1157.04 34.2998C1156.67 34.5525 1156.4 34.9561 1156.26 35.4975C1156.16 35.842 1156.16 36.6918 1156.26 37.0429C1156.45 37.7615 1156.87 38.1979 1157.54 38.3751C1157.83 38.4506 1158.57 38.4506 1158.93 38.3751C1159.27 38.3029 1159.62 38.1717 1159.69 38.0962C1159.75 38.024 1159.75 37.6336 1159.69 37.5712C1159.65 37.5384 1159.55 37.5614 1159.28 37.6532C1158.23 38.0076 1157.42 37.8534 1157.11 37.2398C1157.02 37.0593 1156.94 36.6984 1156.94 36.495V36.3867H1158.26C1159.1 36.3867 1159.64 36.3703 1159.71 36.344C1159.88 36.285 1159.93 36.1373 1159.9 35.7567C1159.84 35.002 1159.59 34.5295 1159.09 34.2309C1158.78 34.0406 1158.19 33.9454 1157.75 34.0176ZM1158.46 34.6247C1158.86 34.7428 1159.1 35.0775 1159.13 35.5401L1159.15 35.8059H1156.93L1156.96 35.6451C1157.02 35.2448 1157.19 34.9462 1157.45 34.769C1157.74 34.5689 1158.11 34.5164 1158.46 34.6247ZM1162.26 34.0275C1162.08 34.0865 1161.82 34.2998 1161.62 34.5393L1161.44 34.7756L1161.42 34.4311L1161.4 34.0865L1161.17 34.0734C1161.04 34.0668 1160.9 34.0701 1160.85 34.0832L1160.77 34.1029V36.2062C1160.77 38.0897 1160.77 38.3095 1160.83 38.3325C1160.91 38.362 1161.36 38.362 1161.44 38.3325C1161.49 38.3128 1161.5 38.152 1161.5 36.9379V35.5664L1161.67 35.3268C1161.9 34.9987 1162.21 34.7329 1162.38 34.7001C1162.47 34.6837 1162.62 34.6968 1162.79 34.7395C1162.95 34.7822 1163.07 34.792 1163.09 34.769C1163.11 34.7493 1163.12 34.5918 1163.11 34.4278C1163.1 34.1325 1163.1 34.1193 1162.99 34.0701C1162.86 34.0045 1162.41 33.9782 1162.26 34.0275ZM1168.92 34.0307C1168.61 34.0832 1168.18 34.3064 1167.96 34.5295C1167.53 34.9528 1167.36 35.5368 1167.39 36.4031C1167.41 37.184 1167.56 37.5712 1167.97 37.9551C1168.36 38.3259 1168.77 38.4473 1169.52 38.4243C1170.07 38.4047 1170.56 38.2964 1170.79 38.1454C1170.9 38.07 1170.91 38.0404 1170.92 37.8501C1170.93 37.7353 1170.91 37.6139 1170.89 37.5811C1170.85 37.5187 1170.89 37.5122 1170.23 37.7189C1169.97 37.8009 1169.83 37.8206 1169.5 37.8239C1168.85 37.8272 1168.52 37.6532 1168.3 37.207C1168.2 37.02 1168.17 36.8887 1168.15 36.6722L1168.13 36.3867L1169.53 36.3768C1171.2 36.3637 1171.08 36.3998 1171.08 35.8847C1171.08 34.979 1170.69 34.349 1169.98 34.1029C1169.73 34.0176 1169.21 33.9815 1168.92 34.0307ZM1169.65 34.6279C1170.03 34.7428 1170.28 35.084 1170.34 35.5664L1170.36 35.8059H1168.14L1168.16 35.6123C1168.22 35.1398 1168.54 34.7329 1168.96 34.605C1169.12 34.5557 1169.44 34.5689 1169.65 34.6279ZM1173.48 34.0242C1173.23 34.1062 1172.89 34.395 1172.7 34.6804C1172.63 34.7756 1172.63 34.769 1172.63 34.4672C1172.63 34.2768 1172.61 34.139 1172.58 34.1128C1172.52 34.0504 1172.04 34.0504 1171.98 34.1128C1171.91 34.1784 1171.91 38.2439 1171.98 38.3095C1172.04 38.3718 1172.6 38.3718 1172.66 38.3095C1172.69 38.2767 1172.71 37.9092 1172.71 36.9084V35.5532L1172.85 35.34C1173.06 35.0217 1173.33 34.7723 1173.52 34.7165C1173.68 34.6673 1173.74 34.6739 1174.17 34.7854C1174.29 34.8182 1174.33 34.7493 1174.33 34.4901C1174.33 34.2014 1174.3 34.1226 1174.18 34.0668C1174.06 34.0111 1173.61 33.9815 1173.48 34.0242ZM1163.2 34.1259C1163.16 34.1751 1163.28 34.5361 1163.88 36.2029C1164.28 37.312 1164.63 38.2537 1164.67 38.2964C1164.82 38.4473 1165.55 38.4112 1165.62 38.2504C1165.67 38.1225 1167.02 34.3589 1167.05 34.2703C1167.09 34.1161 1167.01 34.0701 1166.68 34.0701C1166.49 34.0701 1166.37 34.0865 1166.34 34.1193C1166.32 34.1456 1166.05 34.9298 1165.73 35.8617C1165.42 36.7936 1165.15 37.5417 1165.13 37.522C1165.12 37.5056 1164.85 36.7443 1164.54 35.8289C1164.22 34.9134 1163.95 34.1456 1163.92 34.1161C1163.87 34.0406 1163.26 34.0504 1163.2 34.1259Z" fill="white"/>
<path d="M930 14.5C925.327 14.5 922.423 16.8275 921.25 21.5C923 19.1725 925.047 18.2975 927.375 18.875C928.705 19.2075 929.667 20.17 930.717 21.2375C932.432 22.9875 934.375 25 938.75 25C943.423 25 946.327 22.6725 947.5 18C945.75 20.3275 943.703 21.2025 941.375 20.625C940.045 20.2925 939.1 19.33 938.033 18.2625C936.318 16.5125 934.375 14.5 930 14.5ZM921.25 25C916.577 25 913.673 27.3275 912.5 32C914.25 29.6725 916.297 28.7975 918.625 29.375C919.955 29.7075 920.9 30.67 921.967 31.7375C923.682 33.4875 925.625 35.5 930 35.5C934.673 35.5 937.577 33.1725 938.75 28.5C937 30.8275 934.953 31.7025 932.625 31.125C931.295 30.7925 930.35 29.83 929.283 28.7625C927.568 27.0125 925.625 25 921.25 25Z" fill="#EFEFEF"/>
<g clip-path="url(#clip10_25_2)">
<path d="M1309.04 6.31506L1310.62 6.66287L1311.9 7.12094L1312.93 7.64594L1313.72 8.20769L1314.31 8.80225L1314.75 9.3955L1315.03 9.97169L1315.2 10.4967L1315.27 10.9482L1315.31 11.3039L1315.29 11.5296V20.8746L1315.2 21.9758L1314.97 22.9405L1314.6 23.7477L1314.15 24.4105L1313.63 24.9499L1313.05 25.387L1312.44 25.723L1311.82 25.9684L1311.25 26.1469L1310.73 26.2624L1310.27 26.3372L1309.9 26.3727H1299.45L1298.25 26.4606L1297.22 26.7008L1296.34 27.0906L1295.62 27.5618L1295.04 28.1236L1294.57 28.7312L1294.22 29.3678L1293.96 30.0096L1293.78 30.6239L1293.66 31.1856L1293.59 31.6568L1293.56 32.0256V37.3793H1289.65L1289.29 37.3229L1288.79 37.2008L1288.24 36.9961L1287.63 36.6811L1287 36.2243L1286.37 35.5943L1285.75 34.7871L1285.19 33.7542L1284.7 32.4771L1284.34 30.9389L1284.09 29.1001L1284 26.9476L1284.1 24.8147L1284.38 22.9969L1284.81 21.4731L1285.37 20.2289L1286 19.2314L1286.7 18.4649L1287.43 17.8834L1288.17 17.4674L1288.87 17.1878L1289.5 17.0093L1290.06 16.9201L1290.48 16.9056H1290.76L1290.87 16.9201H1305.14V15.4711H1294.92L1294.9 10.6581L1294.87 10.0084L1294.96 9.41387L1295.15 8.87444L1295.44 8.38094L1295.88 7.93075L1296.43 7.5265L1297.09 7.17869L1297.86 6.85712L1298.75 6.59856L1299.77 6.38725L1300.88 6.21531L1302.13 6.10637L1303.48 6.03812L1304.95 6.00269L1307.17 6.09194L1309.04 6.31506ZM1298.02 9.78006L1297.62 10.3536L1297.47 11.0716L1297.62 11.7908L1298.02 12.3841L1298.59 12.7739L1299.31 12.9314L1300.03 12.7739L1300.6 12.3841L1301.01 11.7908L1301.15 11.0716L1301.01 10.3536L1300.6 9.78006L1300.03 9.39681L1299.31 9.24062L1298.59 9.39681L1298.02 9.78006ZM1320.93 16.6904L1321.41 16.8006L1321.97 17.0054L1322.59 17.3204L1323.22 17.7916L1323.85 18.4071L1324.46 19.2274L1325.02 20.2577L1325.51 21.5374L1325.88 23.0822L1326.12 24.9001L1326.21 27.0526L1326.1 29.2064L1325.82 31.0242L1325.41 32.527L1324.84 33.7712L1324.21 34.7687L1323.51 35.5562L1322.78 36.1298L1322.04 36.5537L1321.34 36.8333L1320.71 36.9908L1320.15 37.0801L1319.74 37.1129L1319.46 37.0932H1305.07V38.5277H1315.29L1315.31 43.3617L1315.34 43.9904L1315.25 44.5849L1315.06 45.1244L1314.76 45.6297L1314.33 46.0667L1313.79 46.492L1313.12 46.8398L1312.35 47.1404L1311.46 47.3989L1310.44 47.6247L1309.32 47.7822L1308.09 47.9042L1306.73 47.9725L1305.26 47.9935L1303.04 47.9252L1301.17 47.6785L1299.59 47.3307L1298.32 46.8936L1297.28 46.3673L1296.5 45.7859L1295.9 45.1913L1295.47 44.5981L1295.19 44.0219L1295.01 43.4969L1294.94 43.0598L1294.9 42.7094L1294.92 42.4849V33.1399L1295.01 32.0177L1295.24 31.0675L1295.6 30.2682L1296.06 29.5975L1296.59 29.0449L1297.16 28.621L1297.78 28.2706L1298.38 28.0251L1298.97 27.8466L1299.49 27.7456L1299.94 27.6773L1300.54 27.6209H1310.76L1311.97 27.5329L1313 27.2927L1313.88 26.9239L1314.59 26.4317L1315.17 25.87L1315.64 25.2623L1316 24.6257L1316.26 23.9971L1316.43 23.3881L1316.56 22.8276L1316.63 22.3354L1316.66 21.9666V16.6129H1320.32L1320.56 16.6274L1320.93 16.6904ZM1309.6 41.6279L1309.2 42.2093L1309.06 42.9286L1309.2 43.6465L1309.6 44.2201L1310.18 44.623L1310.9 44.7595L1311.62 44.623L1312.19 44.2201L1312.6 43.6465L1312.74 42.9286L1312.6 42.2093L1312.19 41.6279L1311.62 41.2249L1310.9 41.0884L1310.18 41.2249L1309.6 41.6279Z" fill="#EFEFEF"/>
</g>
<path d="M1363.55 23.5326L1373.67 13.4001L1376.62 16.3751C1376.2 17.8626 1376.89 19.4901 1378.25 20.2776V29.9726C1377.2 30.5676 1376.5 31.7051 1376.5 33.0001C1376.5 33.9283 1376.87 34.8186 1377.53 35.4749C1378.18 36.1313 1379.07 36.5001 1380 36.5001C1380.93 36.5001 1381.82 36.1313 1382.47 35.4749C1383.13 34.8186 1383.5 33.9283 1383.5 33.0001C1383.5 31.7051 1382.8 30.5676 1381.75 29.9726V21.4676L1385.37 25.1251C1385.25 25.3876 1385.25 25.6851 1385.25 26.0001C1385.25 26.9283 1385.62 27.8186 1386.28 28.4749C1386.93 29.1313 1387.82 29.5001 1388.75 29.5001C1389.68 29.5001 1390.57 29.1313 1391.22 28.4749C1391.88 27.8186 1392.25 26.9283 1392.25 26.0001C1392.25 25.0718 1391.88 24.1816 1391.22 23.5252C1390.57 22.8688 1389.68 22.5001 1388.75 22.5001C1388.44 22.5001 1388.14 22.5001 1387.88 22.6226L1383.38 18.1251C1383.59 17.3145 1383.51 16.4527 1383.14 15.6995C1382.77 14.9464 1382.14 14.3532 1381.37 14.0301C1380.61 13.7501 1379.83 13.6801 1379.13 13.8726L1376.15 10.9151L1377.53 9.55006C1378.9 8.16756 1381.1 8.16756 1382.47 9.55006L1396.45 23.5326C1397.83 24.8976 1397.83 27.1026 1396.45 28.4676L1382.47 42.4501C1381.1 43.8326 1378.9 43.8326 1377.53 42.4501L1363.55 28.4676C1362.17 27.1026 1362.17 24.8976 1363.55 23.5326Z" fill="#EFEFEF"/>
<path d="M1591.75 29.7693C1591.81 28.602 1592.38 27.5748 1593.25 26.845C1594.15 26.0916 1595.29 25.6825 1596.47 25.69C1597.71 25.69 1598.85 26.1275 1599.7 26.845C1600.56 27.5748 1601.13 28.6038 1601.2 29.7693C1601.27 30.9698 1600.78 32.0845 1599.94 32.9105C1599 33.8 1597.76 34.291 1596.47 34.279C1595.18 34.2917 1593.94 33.8007 1593.01 32.9105C1592.16 32.0845 1591.68 30.9698 1591.75 29.7693Z" fill="#EFEFEF"/>
<path d="M1584.22 32.1317C1584.23 32.5867 1584.37 33.4739 1584.59 34.1687C1585.06 35.6628 1585.86 37.0358 1586.91 38.1919C1588.05 39.4401 1589.43 40.4343 1590.98 41.1092C1592.66 41.8508 1594.48 42.2295 1596.32 42.2204C1598.16 42.2227 1599.97 41.8381 1601.66 41.0917C1603.2 40.4086 1604.58 39.4101 1605.72 38.1604C1606.77 37.0006 1607.57 35.6256 1608.04 34.1302C1608.27 33.3996 1608.42 32.6452 1608.48 31.8814C1608.64 29.6729 1608.1 27.4694 1606.92 25.5919C1606.2 24.4456 1605.29 23.4364 1604.22 22.6117L1604.22 22.6099L1593.28 14.2117L1593.26 14.1872C1592.54 13.6377 1591.33 13.6394 1590.54 14.1907C1589.74 14.7489 1589.65 15.6712 1590.36 16.2557L1590.36 16.2574L1594.92 19.9692L1581.02 19.9849H1581C1579.85 19.9849 1578.74 20.7409 1578.53 21.6929C1578.3 22.6642 1579.08 23.4692 1580.28 23.4727L1580.28 23.4779L1587.32 23.4639L1574.74 33.1169L1574.7 33.1537C1573.51 34.0619 1573.13 35.5722 1573.87 36.5294C1574.63 37.5024 1576.24 37.5024 1577.44 36.5329L1584.31 30.9172C1584.31 30.9172 1584.21 31.6749 1584.22 32.1317ZM1601.85 34.6692C1600.44 36.1112 1598.46 36.9284 1596.32 36.9319C1594.17 36.9354 1592.2 36.1252 1590.78 34.6867C1590.11 34.0167 1589.59 33.2094 1589.27 32.3207C1588.96 31.4755 1588.84 30.5727 1588.92 29.6764C1589 28.7927 1589.26 27.9492 1589.68 27.1879C1590.09 26.4372 1590.66 25.7617 1591.36 25.1859C1592.77 24.0569 1594.52 23.4463 1596.32 23.4569C1598.12 23.4424 1599.87 24.048 1601.27 25.1719C1601.97 25.7424 1602.54 26.4162 1602.96 27.1652C1603.38 27.9282 1603.64 28.7682 1603.72 29.6519C1603.79 30.5481 1603.68 31.4506 1603.37 32.2962C1603.04 33.1862 1602.52 33.9953 1601.85 34.6692Z" fill="#EFEFEF"/>
<path fill-rule="evenodd" clip-rule="evenodd" d="M1510.92 34.1249H1508.57V21.3237C1509.41 21.1697 1510.59 21.0542 1512.19 21.0542C1513.92 21.0542 1515.19 21.4199 1516.02 22.1129C1516.79 22.7482 1517.29 23.7684 1517.29 24.9812C1517.29 26.2132 1516.9 27.2334 1516.17 27.9264C1515.23 28.8697 1513.75 29.3124 1512.07 29.3124C1511.63 29.3124 1511.22 29.2932 1510.92 29.2354V34.1249ZM1512.28 22.8637C1511.63 22.8637 1511.17 22.9214 1510.92 22.9792V27.3682C1511.2 27.4452 1511.59 27.4644 1512.07 27.4644C1513.84 27.4644 1514.92 26.5982 1514.92 25.0774C1514.92 23.6337 1513.92 22.8637 1512.28 22.8637Z" fill="#EFEFEF"/>
<path d="M1520.31 34.3368C1519.18 34.3368 1518.16 34.0481 1517.46 33.6631L1517.93 31.9498C1518.47 32.2771 1519.48 32.6236 1520.33 32.6236C1521.37 32.6236 1521.83 32.2001 1521.83 31.5841C1521.83 30.9488 1521.45 30.6216 1520.29 30.2173C1518.47 29.5821 1517.7 28.5811 1517.71 27.4838C1517.71 25.8283 1519.08 24.5386 1521.26 24.5386C1522.3 24.5386 1523.2 24.8081 1523.74 25.0968L1523.28 26.7716C1522.67 26.4309 1521.99 26.2457 1521.3 26.2326C1520.45 26.2326 1519.99 26.6368 1519.99 27.2143C1519.99 27.8111 1520.43 28.0998 1521.62 28.5233C1523.32 29.1393 1524.11 30.0056 1524.13 31.3916C1524.13 33.0856 1522.8 34.3368 1520.31 34.3368Z" fill="#EFEFEF"/>
<path fill-rule="evenodd" clip-rule="evenodd" d="M1525.2 11.9577C1519.09 11.2797 1512.91 11.2797 1506.8 11.9577C1503.28 12.3514 1500.43 15.1252 1500.02 18.6637C1499.3 24.8667 1499.3 31.1332 1500.02 37.3362C1500.43 40.8747 1503.28 43.6484 1506.8 44.0422C1512.91 44.7194 1519.09 44.7194 1525.2 44.0422C1528.72 43.6484 1531.57 40.8747 1531.98 37.3362C1532.7 31.1332 1532.7 24.8667 1531.98 18.6637C1531.57 15.1252 1528.72 12.3514 1525.2 11.9577ZM1507.09 14.5652C1513.01 13.9087 1518.99 13.9087 1524.91 14.5652C1527.24 14.8277 1529.1 16.6634 1529.37 18.9699C1530.08 24.9695 1530.08 31.0304 1529.37 37.0299C1529.23 38.1588 1528.72 39.2073 1527.91 40.0062C1527.1 40.8052 1526.04 41.3078 1524.91 41.4329C1518.99 42.0895 1513.01 42.0895 1507.09 41.4329C1505.96 41.3078 1504.9 40.8052 1504.09 40.0062C1503.28 39.2073 1502.77 38.1588 1502.63 37.0299C1501.92 31.0304 1501.92 24.9695 1502.63 18.9699C1502.77 17.8411 1503.28 16.7926 1504.09 15.9936C1504.9 15.1947 1505.96 14.6903 1507.09 14.5652Z" fill="#EFEFEF"/>
<g clip-path="url(#clip11_25_2)">
<path d="M1440.84 7H1447.64V20.6114H1440.84C1431.86 20.2606 1431.77 7.36848 1440.84 7ZM1440.84 34.8051H1447.64V21.1936H1440.84C1431.77 21.5621 1431.86 34.4542 1440.84 34.8051ZM1455.03 7H1448.23V20.6114H1455.03C1464.13 20.1247 1464.01 7.27784 1455.03 7ZM1447.64 42.193V35.3872H1440.84C1435.28 35.3872 1431.77 41.8986 1435.63 46.5753C1439.32 51.2108 1447.64 48.8998 1447.64 42.193H1447.64ZM1461.85 27.9993C1461.85 22.769 1456.15 19.4824 1451.61 22.0976C1447.08 24.7128 1447.08 31.286 1451.61 33.9012C1456.15 36.5163 1461.85 33.2297 1461.85 27.9993Z" fill="#EFEFEF"/>
</g>
<g clip-path="url(#clip12_25_2)">
<path d="M1660.3 19.3015C1661.79 20.5576 1664.2 21.867 1666.28 22.6839C1664.49 21.3824 1662.7 19.9155 1660.92 17.9954C1662.4 14.8335 1664.17 10.4661 1666 6.00806C1668.98 13.6122 1674.52 25.0559 1681.95 38.6334C1679.93 37.5249 1678.11 36.8937 1676.22 36.406C1676.84 36.7633 1678.32 37.5706 1679.27 38.2196C1680.77 39.2447 1682.16 40.3658 1683.46 41.4392C1684.63 43.5811 1685.81 45.7672 1687 47.9919C1681.07 44.56 1675.31 41.7799 1670.59 40.9212C1672.14 32.3513 1666.09 27.2952 1662.66 32.7501C1661.33 34.8503 1660.98 38.3107 1661.6 40.8821C1655.64 42.031 1649.8 45.2471 1645 47.992C1650.59 37.863 1656.24 27.595 1660.3 19.3015Z" fill="#EFEFEF"/>
</g>
<g clip-path="url(#clip13_25_2)">
<path d="M1742.36 19.4002C1742.36 19.4002 1738.91 19.1727 1733.04 21.0102C1727.05 22.8827 1723.66 25.5375 1723.66 25.5375C1723.66 25.5375 1732.58 20.5552 1742.65 20.2735L1742.36 19.4002ZM1755.23 24.8165L1755.68 24.7867C1755.68 24.7867 1753.11 21.6717 1748.19 20.1527C1750.95 21.2762 1753.36 22.7655 1755.23 24.8165ZM1755.96 26.1115C1756.03 25.9925 1756.25 26.4912 1756.42 26.7012C1756.43 26.7432 1756.44 26.7695 1756.34 26.7485C1756.33 26.7047 1756.32 26.6925 1756.32 26.6925C1756.32 26.6925 1756.08 26.5525 1756.01 26.4527C1755.94 26.353 1755.92 26.178 1755.96 26.1115ZM1761.99 40.9497C1761.99 40.9497 1762.54 34.6882 1752.7 33.2445C1751.24 33.0334 1749.76 32.9241 1748.29 32.9172C1740.4 33.0222 1740.11 23.8225 1746.05 23.3587C1748.52 23.1557 1751.46 24.484 1754.33 25.8227C1754.32 26.1797 1754.33 26.4965 1754.57 26.7887C1754.8 27.0827 1755.7 27.4012 1755.99 27.5675C1756.28 27.732 1757.2 28.32 1757.77 29.055C1757.89 28.8257 1758.91 28.159 1758.91 28.159C1758.91 28.159 1758.67 28.1642 1758.1 27.9507C1757.53 27.7372 1756.85 27.0932 1756.83 27.0565C1756.82 27.018 1756.81 26.9602 1756.94 26.934C1757.04 26.8482 1756.81 26.5717 1756.71 26.4702C1756.61 26.3687 1755.93 25.2172 1755.92 25.1927C1755.9 25.1647 1755.9 25.1385 1755.85 25.1052C1755.7 25.058 1755.04 25.1752 1755.04 25.1752C1755.04 25.1752 1754.04 24.68 1753.69 23.6125C1753.69 23.7997 1753.51 24.0045 1753.69 24.4332C1753.16 24.211 1752.71 23.8312 1752.35 22.8932C1752.14 23.427 1752.35 23.7665 1752.35 23.7665C1752.35 23.7665 1751.12 23.42 1750.92 22.279C1750.7 22.7917 1750.92 23.0997 1750.92 23.0997C1750.92 23.0997 1748.9 22.0462 1745.55 22.0322C1743.3 21.8257 1742.84 17.8777 1743.05 17.2127C1743.05 17.2127 1739.81 15.5065 1733.43 14.7522C1727.06 13.9997 1721.83 14.6385 1721.83 14.6385C1721.83 14.6385 1733.12 14.096 1742.16 17.7587C1742.47 19.1325 1743.4 21.4232 1743.89 22.524C1742.47 23.5092 1740.86 24.435 1740.61 27.7215C1740.36 31.008 1743.19 33.899 1746.69 33.9865C1750.02 34.165 1752.32 34.1895 1755.1 35.635C1757.76 37.105 1759.94 41.585 1760.16 45.6152C1760.39 42.6245 1759.27 36.195 1754.03 34.2437C1761.35 35.5247 1761.99 40.9497 1761.99 40.9497ZM1742.19 18.9102L1741.93 18.0615C1741.93 18.0615 1737.58 17.2897 1731.74 17.7045C1725.9 18.1192 1720 20.165 1720 20.165C1720 20.165 1732.07 17.1287 1742.19 18.9102Z" fill="#EFEFEF"/>
</g>
<defs>
<clipPath id="clip0_25_2">
<rect width="42" height="42" fill="white" transform="translate(75 5)"/>
</clipPath>
<clipPath id="clip1_25_2">
<rect width="42" height="42" fill="white" transform="translate(150 5)"/>
</clipPath>
<clipPath id="clip2_25_2">
<rect width="42" height="42" fill="white" transform="translate(225 5)"/>
</clipPath>
<clipPath id="clip3_25_2">
<rect width="41.84" height="42" fill="white" transform="translate(450 3)"/>
</clipPath>
<clipPath id="clip4_25_2">
<rect width="52.5" height="42" fill="white" transform="translate(749)"/>
</clipPath>
<clipPath id="clip5_25_2">
<rect width="42" height="42" fill="white" transform="translate(834 3)"/>
</clipPath>
<clipPath id="clip6_25_2">
<rect width="41.52" height="42" fill="white" transform="translate(675 1)"/>
</clipPath>
<clipPath id="clip7_25_2">
<rect width="42" height="42" fill="white" transform="translate(525 6)"/>
</clipPath>
<clipPath id="clip8_25_2">
<rect width="42" height="42" fill="white" transform="translate(600 3)"/>
</clipPath>
<clipPath id="clip9_25_2">
<rect width="42" height="42" fill="white" transform="translate(1209 3)"/>
</clipPath>
<clipPath id="clip10_25_2">
<rect width="42" height="42" fill="white" transform="translate(1284 6)"/>
</clipPath>
<clipPath id="clip11_25_2">
<rect width="27.9" height="42" fill="white" transform="translate(1434 7)"/>
</clipPath>
<clipPath id="clip12_25_2">
<rect width="42" height="42" fill="white" transform="translate(1645 6)"/>
</clipPath>
<clipPath id="clip13_25_2">
<rect width="42" height="42" fill="white" transform="translate(1720 9)"/>
</clipPath>
</defs>
</svg>
