<svg width="42" height="42" viewBox="0 0 42 42" fill="none" xmlns="http://www.w3.org/2000/svg">
<path d="M12.2167 7.875C13.4269 7.875 14.5451 7.96688 15.5715 8.2425C16.5953 8.42625 17.4379 8.8095 18.186 9.26887C18.9368 9.73087 19.4906 10.3871 19.8686 11.2297C20.2361 12.0697 20.4356 13.0961 20.4356 14.2144C20.4356 15.5164 20.1574 16.6346 19.5011 17.4746C18.9368 18.3146 18.0154 19.0654 16.884 19.6193C18.4748 20.0813 19.6849 20.9212 20.4225 22.0395C21.1601 23.1578 21.6326 24.5516 21.6326 26.1424C21.6326 27.4444 21.357 28.5626 20.8845 29.4971C20.4132 30.4377 19.7059 31.24 18.8317 31.8255C17.9917 32.3899 16.9654 32.8492 15.8471 33.1275C14.7517 33.4168 13.6252 33.5719 12.4924 33.5895L0 33.6079V7.875H12.2167ZM11.4686 18.3173C12.4924 18.3173 13.3324 18.0416 13.9808 17.5691C14.6265 17.0966 14.9126 16.2645 14.9126 15.2408C14.9126 14.6738 14.8208 14.1225 14.637 13.7524C14.4381 13.3772 14.1495 13.0571 13.797 12.8205C13.4162 12.6129 13.0092 12.4575 12.5869 12.3585C12.1249 12.2666 11.6524 12.2666 11.0985 12.2666H5.69625V18.3304C5.69625 18.3172 11.4686 18.3173 11.4686 18.3173ZM11.7443 29.3239C12.3086 29.3239 12.8625 29.232 13.335 29.1401C13.797 29.0483 14.2695 28.8619 14.637 28.5731C15.0045 28.2844 15.2933 28.0087 15.5715 27.5494C15.7552 27.0874 15.939 26.523 15.939 25.8668C15.939 24.5648 15.5715 23.6302 14.8207 22.974C14.0726 22.4096 13.0462 22.134 11.8361 22.134H5.69625V29.3108H11.7469L11.7443 29.3239ZM29.7465 29.232C30.4972 29.9801 31.6129 30.3503 33.1012 30.3503C34.125 30.3503 35.0595 30.072 35.8102 29.5995C36.5584 29.0351 37.0177 28.4812 37.2015 27.9195H41.769C41.0182 30.1534 39.9 31.7441 38.4142 32.7705C36.9285 33.7024 35.1514 34.2563 33.0068 34.2563C31.6354 34.2623 30.2752 34.0085 28.9984 33.5081C27.8492 33.0809 26.8238 32.3757 26.0138 31.4554C25.1497 30.5972 24.5082 29.5412 24.1448 28.3789C23.6854 27.1687 23.4885 25.8668 23.4885 24.3679C23.4885 22.974 23.6723 21.6589 24.1448 20.4487C24.6173 19.2413 25.263 18.2123 26.1056 17.2804C26.9456 16.4404 27.972 15.6896 29.0903 15.2276C30.3371 14.7312 31.6673 14.4773 33.0094 14.4795C34.6001 14.4795 35.994 14.7551 37.2041 15.4114C38.4116 16.0676 39.3487 16.8079 40.0969 17.9261C40.845 18.9499 41.3989 20.16 41.7795 21.4646C41.9632 22.7666 42.0551 24.0791 41.9632 25.5675H28.4445C28.4445 27.09 28.9957 28.4812 29.7465 29.232ZM35.6265 19.4355C34.9702 18.7792 33.9412 18.4091 32.7311 18.4091C31.8911 18.4091 31.2454 18.5929 30.681 18.8711C30.1166 19.1468 29.7465 19.5274 29.379 19.8949C29.0359 20.2552 28.8075 20.7092 28.7228 21.1995C28.6283 21.6589 28.539 22.0395 28.539 22.407H36.9285C36.7448 21.0263 36.2749 20.0917 35.6265 19.4355ZM27.4181 9.6495H37.8604V12.1616H27.4181V9.6495Z" fill="#EFEFEF"/>
</svg>
