<svg width="42" height="42" viewBox="0 0 42 42" fill="none" xmlns="http://www.w3.org/2000/svg">
<g clip-path="url(#clip0_7_93)">
<path d="M0 3.00825C0 1.34663 1.38075 0 3.08437 0H38.9156C40.6193 0 42 1.34663 42 3.00825V38.9917C42 40.6534 40.6193 42 38.9156 42H3.08437C1.38075 42 0 40.6534 0 38.9917V3.00825ZM12.9754 35.1592V16.1936H6.67275V35.1592H12.9754ZM9.82537 13.6028C12.0225 13.6028 13.3901 12.1485 13.3901 10.3267C13.3507 8.46562 12.0251 7.05075 9.86738 7.05075C7.70963 7.05075 6.3 8.46825 6.3 10.3267C6.3 12.1485 7.66762 13.6028 9.78337 13.6028H9.82537ZM22.7089 35.1592V24.5674C22.7089 24.0004 22.7509 23.4334 22.9189 23.0291C23.373 21.8977 24.4099 20.7244 26.1529 20.7244C28.434 20.7244 29.3449 22.4621 29.3449 25.0136V35.1592H35.6475V24.2812C35.6475 18.4538 32.5395 15.7448 28.392 15.7448C25.0478 15.7448 23.5489 17.5823 22.7089 18.8764V18.942H22.6669C22.6808 18.9201 22.6948 18.8982 22.7089 18.8764V16.1936H16.4089C16.4876 17.9734 16.4089 35.1592 16.4089 35.1592H22.7089Z" fill="#EFEFEF"/>
</g>
<defs>
<clipPath id="clip0_7_93">
<rect width="42" height="42" fill="white"/>
</clipPath>
</defs>
</svg>
