<svg width="42" height="42" viewBox="0 0 42 42" fill="none" xmlns="http://www.w3.org/2000/svg">
<path d="M34.9808 20.251C34.8373 17.4964 33.8792 14.8463 32.228 12.6368C31.7249 13.1786 31.1871 13.6871 30.618 14.1592C28.8696 15.6115 26.9159 16.7969 24.8202 17.6768C25.1125 18.2892 25.3802 18.8825 25.6165 19.4425V19.4478C25.6637 19.5545 25.704 19.6542 25.781 19.8485L25.8107 19.9185C28.4585 19.621 31.2515 19.7312 33.9588 20.0987C34.3193 20.146 34.6588 20.1967 34.9808 20.251ZM18.557 7.2135C20.2625 9.61653 21.8352 12.1111 23.268 14.686C25.4082 13.8425 27.1775 12.7785 28.602 11.5938C29.1795 11.1143 29.6415 10.6627 29.995 10.2725C27.4767 8.1545 24.2905 6.99533 21 7C20.167 7 19.3515 7.0735 18.557 7.21175V7.2135ZM7.44275 17.4947C8.6349 17.4647 9.82563 17.3929 11.0128 17.2795C13.8821 17.0228 16.727 16.5419 19.5212 15.841C18.0609 13.3039 16.4842 10.8355 14.7962 8.44375C12.9933 9.33695 11.4035 10.6075 10.1347 12.1691C8.8659 13.7308 7.94783 15.5471 7.44275 17.4947ZM10.1202 29.8112C10.9409 28.6257 11.8631 27.5137 12.8765 26.488C15.421 23.8805 18.424 21.8505 21.8995 20.7305L22.008 20.699C21.7192 20.062 21.448 19.4932 21.175 18.9578C17.962 19.894 14.5775 20.4785 11.2052 20.7812C9.56025 20.93 8.085 20.9948 7 21.0053C6.99676 24.2123 8.09764 27.3224 10.1202 29.8112ZM26.257 33.9763C25.5821 30.5729 24.6269 27.2313 23.401 23.9855C19.901 25.2578 17.108 27.118 14.9503 29.337C14.0795 30.2162 13.3067 31.1873 12.6455 32.2333C15.0584 34.0336 17.9894 35.0043 21 35C22.8023 35.0026 24.5881 34.6561 26.2588 33.9797L26.257 33.9763ZM29.5365 32.095C32.2687 29.9946 34.13 26.96 34.7638 23.5725C34.1687 23.4237 33.4145 23.275 32.585 23.1595C30.7407 22.894 28.8694 22.8745 27.02 23.1017C28.0612 26.0397 28.902 29.0432 29.5365 32.095ZM21 38.5C11.3348 38.5 3.5 30.6652 3.5 21C3.5 11.3348 11.3348 3.5 21 3.5C30.6652 3.5 38.5 11.3348 38.5 21C38.5 30.6652 30.6652 38.5 21 38.5Z" fill="#EFEFEF"/>
</svg>
