<svg width="42" height="42" viewBox="0 0 42 42" fill="none" xmlns="http://www.w3.org/2000/svg">
<path d="M21 3.93213C16.8445 3.93204 12.8246 5.41067 9.65959 8.10344C6.4946 10.7962 4.39111 14.5274 3.72554 18.6292C3.05996 22.7311 3.87575 26.9359 6.0269 30.4913C8.17805 34.0466 11.5242 36.7205 15.4665 38.0344C16.3415 38.1884 16.6688 37.6634 16.6688 37.2031C16.6688 36.7884 16.6478 35.4094 16.6478 33.9446C12.25 34.7531 11.1125 32.8719 10.7625 31.8884C10.3743 30.9307 9.75859 30.082 8.96875 29.4156C8.35625 29.0884 7.48125 28.2781 8.946 28.2571C9.50579 28.3177 10.0427 28.5124 10.5113 28.8246C10.9798 29.1369 11.3661 29.5575 11.6375 30.0509C11.8768 30.4808 12.1985 30.8593 12.5844 31.1647C12.9702 31.47 13.4125 31.6962 13.8859 31.8304C14.3593 31.9645 14.8545 32.0039 15.3431 31.9463C15.8318 31.8886 16.3043 31.7352 16.7335 31.4946C16.8093 30.6045 17.2061 29.7723 17.85 29.1531C13.9563 28.7156 9.8875 27.2071 9.8875 20.5134C9.86271 18.7738 10.5045 17.0907 11.6813 15.8094C11.1463 14.2978 11.2089 12.6389 11.8563 11.1719C11.8563 11.1719 13.321 10.7134 16.6688 12.9656C19.5322 12.178 22.5553 12.178 25.4187 12.9656C28.7647 10.6906 30.2312 11.1719 30.2312 11.1719C30.8788 12.6388 30.9414 14.2978 30.4062 15.8094C31.5866 17.0885 32.2289 18.7731 32.2 20.5134C32.2 27.2281 28.1085 28.7156 24.2148 29.1531C24.6324 29.5764 24.9541 30.0846 25.1579 30.6433C25.3617 31.2019 25.4429 31.7978 25.396 32.3906C25.396 34.7321 25.375 36.6134 25.375 37.2031C25.375 37.6634 25.7023 38.2094 26.5773 38.0344C30.5123 36.7095 33.8485 34.0293 35.9902 30.4722C38.1319 26.9151 38.9398 22.7126 38.2697 18.615C37.5995 14.5173 35.4949 10.7911 32.3316 8.10164C29.1683 5.41216 25.1521 3.93439 21 3.93213Z" fill="#EFEFEF"/>
</svg>
